<?xml version="1.0" standalone="no"?>
<!DOCTYPE svg PUBLIC "-//W3C//DTD SVG 20010904//EN"
 "http://www.w3.org/TR/2001/REC-SVG-20010904/DTD/svg10.dtd">
<svg version="1.0" xmlns="http://www.w3.org/2000/svg"
 width="1280.000000pt" height="640.000000pt" viewBox="0 0 1280.000000 640.000000"
 preserveAspectRatio="xMidYMid meet">
<g transform="translate(0.000000,640.000000) scale(0.100000,-0.100000)"
fill="#000000" stroke="none">
<path d="M6122 5640 c-23 -16 -49 -42 -59 -57 -23 -37 -481 -688 -535 -760
l-41 -56 -45 54 c-67 79 -164 168 -189 175 -31 8 -62 -1 -103 -28 -37 -26 -60
-74 -139 -293 -53 -148 -33 -133 -204 -156 -49 -6 -143 -30 -211 -53 l-122
-42 -90 43 c-106 50 -298 115 -409 138 -101 21 -257 32 -354 24 -62 -5 -77 -9
-89 -27 -9 -15 -25 -22 -44 -22 -74 0 -168 -68 -649 -471 -565 -472 -819 -709
-819 -762 0 -18 -17 -41 -57 -79 -32 -30 -161 -151 -288 -269 -126 -118 -294
-275 -374 -350 -132 -125 -151 -139 -225 -169 -45 -18 -121 -53 -169 -77 -58
-29 -116 -49 -170 -59 -45 -8 -116 -25 -157 -36 -64 -19 -103 -22 -260 -22
-179 -1 -187 -2 -228 -26 -24 -14 -53 -40 -64 -58 l-21 -34 38 21 c53 28 75
15 75 -44 0 -57 14 -58 29 -1 18 74 30 80 141 72 68 -5 98 -11 107 -22 10 -14
15 -14 40 -1 15 8 51 17 78 20 28 3 101 22 163 42 62 20 117 33 123 29 6 -3
20 3 32 14 12 11 33 23 47 27 14 4 79 32 144 62 112 52 121 54 133 37 12 -16
14 -15 23 13 8 21 22 35 48 45 20 8 116 82 212 163 154 131 257 221 587 512
119 105 154 97 196 -46 26 -89 34 -74 36 64 l1 90 613 613 c336 336 615 612
620 612 4 0 7 -13 7 -28 0 -39 17 -52 66 -52 102 0 251 -43 384 -110 67 -34
180 -107 180 -116 0 -3 -40 -44 -88 -92 -142 -139 -276 -334 -306 -444 -9 -29
-31 -91 -50 -138 -76 -184 -131 -428 -121 -530 3 -36 7 -87 8 -115 l2 -50 -55
-26 c-30 -15 -63 -36 -73 -47 -18 -20 -49 -93 -42 -100 2 -2 14 8 28 22 44 44
75 28 84 -44 8 -61 20 -57 28 8 7 61 19 91 31 79 4 -4 18 -44 31 -90 86 -303
318 -574 506 -594 47 -5 64 -1 150 37 54 24 99 41 102 39 6 -7 -27 -136 -85
-329 -27 -91 -52 -182 -56 -203 -4 -23 -25 -60 -58 -100 -28 -34 -77 -97 -109
-139 -45 -60 -76 -89 -143 -133 -48 -31 -110 -79 -140 -106 -50 -48 -57 -51
-126 -60 -98 -12 -122 -17 -196 -41 -93 -30 -139 -74 -156 -153 l-6 -30 22 27
c22 25 37 32 65 29 7 0 20 -26 29 -56 21 -66 34 -56 34 27 0 76 18 88 136 96
75 4 89 3 100 -12 11 -16 13 -16 26 2 7 10 33 30 58 45 25 15 92 67 149 117
57 49 111 89 119 88 9 -2 18 6 21 17 3 12 49 76 101 143 78 101 99 121 118
118 18 -3 22 1 22 22 0 13 9 39 19 56 31 49 75 176 131 377 29 101 58 208 67
237 13 48 19 55 66 78 53 27 180 110 252 164 22 17 78 59 125 93 46 34 112 87
145 118 33 30 83 66 110 79 47 22 79 52 275 255 31 33 72 82 90 108 46 70 116
221 136 297 10 36 21 69 25 74 5 5 31 -1 61 -15 49 -22 65 -24 213 -24 142 0
166 3 216 23 139 56 210 181 210 373 0 71 2 79 19 79 18 0 19 -6 13 -98 -7
-119 9 -221 44 -281 14 -24 32 -71 40 -105 7 -33 20 -71 28 -83 19 -28 20
-156 3 -170 -7 -6 -25 -13 -40 -17 -27 -6 -153 -104 -145 -112 2 -2 28 6 58
19 87 38 151 43 162 14 2 -7 -6 -55 -20 -107 -47 -187 -83 -501 -83 -729 0
-78 -4 -121 -12 -129 -9 -9 -8 -15 5 -24 13 -11 17 -39 21 -152 3 -76 10 -144
15 -150 5 -6 23 -56 39 -111 38 -127 74 -209 92 -213 22 -5 119 -82 131 -103
15 -29 10 -56 -16 -87 -35 -42 -31 -47 16 -21 47 27 71 19 79 -27 6 -29 6 -29
18 -7 35 63 7 118 -128 258 -70 72 -89 98 -94 130 -4 22 -25 83 -46 135 -34
86 -39 107 -44 217 -5 98 -4 127 8 145 10 17 16 73 21 203 8 222 30 507 50
640 14 92 18 102 52 137 35 36 36 40 44 138 l9 102 49 44 c28 25 56 62 66 86
19 47 45 321 45 475 l0 93 40 20 c22 11 56 35 76 53 l37 32 -6 -60 c-4 -33
-11 -84 -16 -113 -13 -71 0 -141 31 -165 19 -16 34 -18 88 -14 137 11 273 89
413 237 65 68 96 111 128 175 23 47 45 85 48 85 3 0 19 -24 35 -53 16 -28 69
-114 118 -191 84 -131 88 -140 78 -170 -8 -24 -8 -28 2 -18 21 21 34 13 83
-50 26 -35 64 -79 85 -98 30 -28 49 -65 100 -195 97 -246 133 -315 163 -315 9
0 59 -21 110 -47 162 -82 332 -138 373 -123 47 18 115 15 130 -5 8 -10 14 -25
14 -32 0 -22 18 -14 22 10 2 18 8 21 31 19 26 -3 27 -1 17 18 -24 45 -57 55
-185 56 -103 2 -134 6 -215 32 -90 28 -287 124 -302 146 -21 31 -148 426 -148
459 0 56 -48 168 -212 493 l-147 293 77 82 c42 45 103 116 135 158 32 42 62
77 67 79 4 2 15 -18 24 -44 20 -61 168 -256 248 -328 134 -123 360 -253 555
-320 111 -38 182 -53 287 -61 57 -4 72 -9 84 -28 31 -47 144 -147 217 -192
190 -119 400 -141 490 -51 52 52 16 75 -59 37 -35 -18 -40 -19 -61 -5 -14 9
-33 12 -47 9 -16 -4 -29 -1 -37 9 -8 9 -23 16 -36 16 -14 0 -26 9 -33 25 -7
14 -20 25 -31 25 -12 0 -23 11 -30 30 -5 17 -15 30 -21 30 -6 0 -16 14 -21 30
-7 19 -18 30 -30 30 -12 0 -19 7 -19 18 0 10 -8 28 -17 41 -20 29 -24 120 -7
171 16 49 76 81 155 84 36 1 64 -3 70 -10 5 -6 23 -14 39 -18 17 -3 30 -12 30
-20 0 -8 10 -18 23 -22 12 -4 28 -15 35 -25 7 -11 20 -19 28 -19 8 0 19 -11
24 -24 5 -13 18 -27 29 -31 12 -3 21 -14 21 -24 0 -10 9 -26 21 -37 11 -10 18
-26 16 -35 -3 -10 2 -27 10 -39 12 -17 13 -27 4 -46 -13 -29 -15 -84 -3 -84
16 0 53 47 63 81 27 91 -46 288 -156 419 -33 40 -65 91 -65 105 0 10 24 4 119
-30 225 -83 405 -165 594 -272 72 -41 80 -43 91 -27 11 15 17 15 52 4 21 -7
60 -25 87 -41 26 -16 55 -29 65 -29 9 0 39 -18 66 -40 26 -22 54 -40 62 -40 7
0 30 -20 51 -45 20 -25 45 -45 55 -45 11 0 32 -21 53 -54 18 -29 43 -56 54
-59 12 -3 29 -19 38 -36 10 -16 27 -32 38 -33 12 -2 30 -21 45 -50 14 -28 34
-49 46 -52 14 -4 29 -22 40 -50 11 -25 28 -49 39 -54 12 -6 27 -28 35 -52 7
-22 22 -46 31 -51 10 -5 21 -25 25 -45 4 -20 17 -47 30 -61 13 -14 24 -35 24
-47 0 -12 9 -38 20 -59 11 -20 20 -51 20 -68 0 -17 5 -40 11 -51 7 -12 13 -69
15 -127 2 -58 8 -107 13 -109 19 -6 33 81 27 156 -18 215 -147 498 -320 702
-30 36 -80 97 -110 137 -67 85 -233 244 -296 281 -25 14 -63 39 -84 54 -22 16
-69 37 -105 48 -36 12 -75 29 -86 40 -29 27 -244 123 -437 194 -27 10 -48 21
-48 25 0 6 65 19 203 38 20 3 37 11 37 18 0 18 101 85 128 85 12 0 34 -13 49
-30 35 -39 45 -38 28 4 -16 38 -8 52 35 58 23 3 22 4 -14 22 -62 30 -117 15
-286 -78 -53 -29 -234 -62 -324 -59 -72 3 -134 22 -253 81 -91 45 -93 47 -109
96 -9 28 -32 81 -50 118 -25 50 -30 69 -21 76 18 15 235 69 372 92 209 36 364
51 593 57 165 5 222 9 222 18 0 25 27 33 120 39 52 4 102 7 110 8 40 2 189
-16 216 -27 17 -7 43 -11 57 -8 18 4 42 -4 72 -21 29 -18 53 -25 66 -21 12 4
33 -1 54 -13 19 -12 43 -18 54 -15 14 3 37 -5 62 -22 23 -15 49 -25 60 -22 11
3 37 -7 61 -24 24 -16 53 -29 65 -29 12 0 38 -13 56 -30 19 -16 43 -30 54 -30
11 0 32 -13 48 -30 16 -16 36 -30 46 -30 9 0 29 -15 44 -32 15 -18 36 -38 47
-44 35 -19 148 -157 181 -221 17 -35 35 -63 39 -63 15 0 8 51 -13 93 -99 197
-363 407 -654 522 -38 15 -117 47 -175 70 -144 59 -315 94 -469 96 -65 1 -124
-2 -130 -5 -6 -4 -75 -9 -154 -11 -287 -6 -764 -95 -1104 -206 l-63 -21 -27
34 c-142 170 -355 334 -540 413 -257 111 -516 126 -700 41 l-51 -24 -84 64
c-122 93 -134 91 -297 -60 -67 -61 -99 -85 -110 -80 -114 51 -155 59 -301 58
-127 0 -156 -4 -235 -28 -293 -88 -515 -273 -556 -465 -7 -31 -16 -61 -20 -66
-4 -6 -48 -12 -96 -13 l-89 -3 -18 53 c-77 219 -244 592 -312 693 -35 53 -83
95 -110 95 -6 0 -30 -13 -52 -30z m-17 -327 c18 -56 192 -414 244 -501 l31
-53 -78 -77 c-60 -60 -88 -97 -124 -168 -52 -100 -93 -227 -102 -319 -14 -124
-13 -124 -54 -135 -20 -5 -57 -21 -81 -35 -23 -14 -44 -25 -46 -25 -1 0 -17
37 -36 83 -51 129 -141 316 -203 421 l-56 96 136 237 c75 131 179 309 231 396
105 176 106 177 138 80z m2203 -15 c7 -7 12 -21 12 -32 0 -36 -51 -176 -64
-176 -6 0 -29 17 -49 38 l-38 38 57 72 c32 40 60 72 64 72 3 0 11 -5 18 -12z
m-3053 -700 c43 -78 55 -106 47 -118 -6 -8 -14 -14 -19 -13 -26 7 -133 50
-138 55 -8 8 14 145 27 171 5 10 13 15 17 13 4 -3 34 -52 66 -108z"/>
</g>
</svg>
