<?xml version="1.0" encoding="UTF-8" standalone="no"?>
<!-- Created with Inkscape (http://www.inkscape.org/) -->

<svg
   xmlns:dc="http://purl.org/dc/elements/1.1/"
   xmlns:cc="http://creativecommons.org/ns#"
   xmlns:rdf="http://www.w3.org/1999/02/22-rdf-syntax-ns#"
   xmlns:svg="http://www.w3.org/2000/svg"
   xmlns="http://www.w3.org/2000/svg"
   xmlns:sodipodi="http://sodipodi.sourceforge.net/DTD/sodipodi-0.dtd"
   xmlns:inkscape="http://www.inkscape.org/namespaces/inkscape"
   width="300mm"
   height="300mm"
   viewBox="0 0 300 300"
   version="1.1"
   id="svg25161"
   inkscape:version="0.92.4 (5da689c313, 2019-01-14)"
   sodipodi:docname="Goliathus_icon.svg">
  <defs
     id="defs25155" />
  <sodipodi:namedview
     id="base"
     pagecolor="#ffffff"
     bordercolor="#666666"
     borderopacity="1.0"
     inkscape:pageopacity="0.0"
     inkscape:pageshadow="2"
     inkscape:zoom="0.69999999"
     inkscape:cx="823.23008"
     inkscape:cy="977.08875"
     inkscape:document-units="mm"
     inkscape:current-layer="layer1"
     showgrid="false"
     gridtolerance="1"
     guidetolerance="1"
     objecttolerance="1"
     inkscape:window-width="1366"
     inkscape:window-height="715"
     inkscape:window-x="-8"
     inkscape:window-y="-8"
     inkscape:window-maximized="1" />
  <metadata
     id="metadata25158">
    <rdf:RDF>
      <cc:Work
         rdf:about="">
        <dc:format>image/svg+xml</dc:format>
        <dc:type
           rdf:resource="http://purl.org/dc/dcmitype/StillImage" />
        <dc:title />
      </cc:Work>
    </rdf:RDF>
  </metadata>
  <g
     inkscape:label="Layer 1"
     inkscape:groupmode="layer"
     id="layer1"
     transform="translate(0,3)">
    <path
       style="fill:#070707;stroke-width:0.46398312"
       d="m 64.778264,13.917416 c 1.737778,-0.458363 3.499081,-0.999066 4.543582,0.969043 -1.336348,-0.864621 -2.672696,0.580492 -4.009043,1.36943 1.544743,-0.380978 3.446852,-1.357567 3.993861,-0.07566 1.999178,-0.16579 1.780857,0.125935 3.021626,0.892762 2.480871,1.53327 2.835716,4.170428 2.151088,4.995348 -0.61237,0.73787 0.599567,2.527216 4.952669,7.312216 2.211549,2.430978 2.39934,3.2029 1.097089,4.50515 -0.876739,0.87675 -0.872061,0.93218 0.311608,3.82819 0.660532,1.61607 1.239862,3.877691 1.287262,5.026052 0.118379,2.866559 0.561908,4.361386 2.373497,7.992276 0.856261,1.71617 1.557012,3.205676 1.557012,3.309874 0,0.104212 -0.417729,0.298545 -0.928108,0.432014 -0.510392,0.133472 -0.927592,0.585145 -0.927592,1.004076 0,0.69047 0.630492,1.72924 4.75578,7.832079 1.618051,2.393709 1.664705,3.556889 0.143145,3.556889 -1.591289,0 -1.914369,0.819957 -0.79375,2.012796 0.524941,0.558771 1.280771,1.797323 1.680001,2.752805 0.399219,0.95549 1.766358,2.886453 3.038056,4.290692 1.271691,1.40426 2.312004,2.864168 2.312004,3.244247 0,1.045062 -3.796237,0.89599 -5.899899,-0.231511 -2.411698,-1.292598 -3.072635,-0.468341 -1.204576,1.501717 2.184479,2.30374 5.619998,8.153948 9.605097,16.356108 4.270667,8.789941 7.088537,13.233861 9.499677,14.980471 3.36419,2.43703 4.64907,3.71085 5.48597,5.43999 0.75621,1.56243 2.02608,2.52096 5.19193,3.9181 0.35148,0.15512 1.04898,1.61651 1.54978,3.24787 0.73027,2.37889 1.39284,3.43693 3.34656,5.34438 l 2.43603,2.37815 -3.4618,0.55087 c -1.90396,0.30293 -4.09506,0.86657 -4.86895,1.25264 -0.77392,0.38608 -1.99142,0.70228 -2.70578,0.70228 -4.15408,0 -9.69399,4.85068 -9.69399,8.48786 0,0.60168 -0.54166,1.60032 -1.20354,2.21898 -0.66188,0.61866 -2.00001,2.48158 -2.97346,4.14032 -0.973462,1.65874 -2.813488,4.40925 -4.089158,6.11177 -3.202959,4.27467 -5.427308,8.38846 -6.786147,12.55117 -0.633431,1.94045 -1.890668,4.92078 -2.79363,6.62285 -2.512449,4.73591 -2.181074,5.30969 1.875856,3.25148 1.255401,-0.63691 2.43894,-1.15913 2.630329,-1.16013 0.809451,-0.005 0.239117,2.38355 -1.230931,5.15369 -0.868421,1.63645 -1.720279,3.91722 -1.892909,5.06842 -0.26539,1.76969 -0.164666,2.22795 0.651124,2.96623 1.30738,1.18316 1.213477,2.26554 -0.353984,4.07675 -0.725439,0.83824 -1.877425,2.48781 -2.559534,3.66541 -1.092369,1.88587 -1.156327,2.21083 -0.536919,2.7249 0.943282,0.78285 0.886328,1.96579 -0.159162,3.30729 -1.79886,2.3082 -2.449008,4.06364 -1.891359,5.10563 0.451983,0.84454 0.285531,1.21766 -1.24075,2.78071 -1.388819,1.42229 -1.816356,2.2705 -2.015897,4.00027 -0.21735,1.88396 -0.47724,2.32777 -1.833481,3.13108 -2.469179,1.4625 -4.597937,3.6761 -4.956286,5.1542 -0.17998,0.74235 -1.114062,2.21317 -2.075841,3.26854 -2.32034,2.54615 -3.218926,4.38107 -3.218926,6.57014 0,1.24364 0.302201,2.08022 0.969449,2.68408 0.969341,0.87724 0.969428,0.87731 0.65836,-0.78084 -0.33206,-1.77 0.705445,-5.05653 1.596284,-5.05653 0.28656,0 0.48731,1.14498 0.48731,2.77657 0,2.39417 0.181594,2.97945 1.316715,4.24986 1.747519,1.95582 2.818145,1.42301 1.482595,-0.73794 -1.220608,-1.975 -1.192451,-3.74154 0.100769,-6.30607 0.918922,-1.82227 1.204243,-2.05139 2.380734,-1.91306 1.2172,0.14311 1.310394,0.0542 1.046964,-0.99529 -0.32567,-1.29759 0.657828,-4.02007 1.79214,-4.96146 0.412271,-0.34215 1.032814,-1.30047 1.379243,-2.12958 0.39605,-0.94786 1.013164,-1.56438 1.661914,-1.66088 0.82295,-0.12237 1.236663,-0.78855 2.045354,-3.29076 0.55762,-1.72537 1.329431,-3.39577 1.71514,-3.71192 0.385699,-0.31615 1.077428,-1.93174 1.536856,-3.59048 0.459431,-1.65874 1.191001,-3.538 1.625743,-4.17597 0.806008,-1.18282 1.158036,-2.33039 1.851565,-6.03167 0.21518,-1.14836 0.547666,-2.89866 0.738457,-3.88969 0.232789,-1.20927 0.640877,-1.87905 1.241266,-2.03605 0.5847,-0.15292 0.819637,-0.52083 0.677995,-1.06246 -0.119189,-0.45579 0.07927,-2.04528 0.440801,-3.53209 0.42123,-1.73277 0.555459,-3.74447 0.374137,-5.60328 -0.285589,-2.92763 0.05524,-3.56274 1.182875,-2.204 1.22463,1.4756 1.801424,0.81588 1.535822,-1.75751 -0.20955,-2.03036 -0.008,-3.06571 1.166339,-5.99912 0.780759,-1.94984 1.561338,-4.30154 1.734778,-5.22603 0.33123,-1.76555 7.92515,-16.94926 8.4708,-16.93696 1.29248,0.029 1.71274,1.07918 1.80144,4.49999 0.13546,5.22251 0.56853,10.55507 1.16324,14.32884 0.51803,3.28725 0.51569,3.30131 -1.41284,8.27753 -2.00269,5.16757 -2.35987,7.77788 -1.26194,9.22631 0.55486,0.73196 0.50668,1.1353 -0.35863,3.01584 -0.94906,2.06255 -1.01307,3.06254 -1.28984,20.03443 -0.29507,18.09273 -0.46246,19.82262 -2.23604,23.13658 -0.45865,0.85695 -0.34636,0.91015 1.75803,0.83405 1.23649,-0.0447 2.59201,-0.36648 3.01222,-0.7152 1.23123,-1.02184 0.9757,0.42735 -0.63407,3.59513 -1.19158,2.34488 -1.3249,2.94396 -0.90227,4.05557 0.70988,1.86712 0.21058,3.23972 -1.94924,5.35678 -1.79668,1.76111 -1.8817,1.96851 -1.64951,4.02404 0.23582,2.08769 0.16108,2.25564 -2.03192,4.57543 -1.36018,1.43881 -2.27958,2.83958 -2.28358,3.47989 -0.009,1.32244 -0.33878,1.79823 -1.964736,2.8329 -0.810839,0.51596 -1.275892,1.21713 -1.275892,1.92341 0,0.64709 -0.8813,2.14342 -2.10943,3.5822 -3.228912,3.78278 -4.303893,6.40143 -4.666382,11.36364 -0.275799,3.77542 -0.200057,4.47476 0.684712,6.30248 1.128419,2.33098 3.01108,4.3039 3.70055,3.87778 0.27572,-0.17041 -0.109432,-1.39443 -0.954982,-3.03392 -0.92756,-1.7985 -1.30013,-3.03885 -1.07797,-3.59047 0.321032,-0.79725 0.368241,-0.79293 0.873334,0.0847 0.836977,1.45436 4.976518,5.33612 5.690608,5.33612 1.041458,0 0.737258,-1.22391 -0.506947,-2.03917 -1.43954,-0.94319 -2.351895,-2.69624 -2.797244,-5.37435 -0.316971,-1.90606 -0.281477,-2.02412 0.428913,-1.43452 1.273151,1.05661 1.937332,-0.0421 1.157552,-1.9141 -0.69592,-1.67066 -0.623744,-6.54444 0.117306,-7.93544 0.295971,-0.55581 0.744696,-0.73887 1.343586,-0.5488 0.664372,0.21088 1.008832,-0.002 1.318272,-0.8165 0.23038,-0.60592 1.37893,-2.08965 2.55229,-3.29695 1.17336,-1.20729 2.13321,-2.40974 2.13321,-2.67218 0,-0.26242 0.50467,-1.14155 1.12137,-1.95389 0.61671,-0.81235 1.1908,-2.1035 1.2759,-2.86907 0.10935,-0.98413 0.40469,-1.39327 1.00769,-1.39527 0.53265,-0.002 1.11034,-0.61207 1.5384,-1.62419 1.18977,-2.81314 2.48047,-6.89188 2.48047,-7.83828 0,-0.50125 0.38899,-1.03503 0.86455,-1.18597 0.92175,-0.29255 1.33865,-2.24603 1.73219,-8.12302 0.11046,-1.64967 0.37244,-3.17123 0.5824,-3.38119 0.20994,-0.20995 0.97183,-0.15737 1.69292,0.11679 1.84089,0.69991 2.22596,0.0386 1.36994,-2.35231 -0.4048,-1.13066 -0.90986,-3.41279 -1.1219,-5.07153 -0.21204,-1.65874 -0.80519,-5.41673 -1.31826,-8.35143 -0.93755,-5.36274 -1.75856,-19.61937 -1.21181,-21.04419 0.78477,-2.04506 1.7346,-0.37548 2.74712,4.82916 0.71093,3.65438 3.65489,11.64936 5.30613,14.40946 2.77915,4.64544 5.46207,7.95301 8.51989,10.50479 1.91124,1.59494 3.58498,2.90008 3.71967,2.90008 0.13469,0 0.84402,0.57412 1.57613,1.27589 0.73211,0.70178 2.05328,1.67919 2.93574,2.17196 1.80622,1.00859 6.52134,3.04281 7.06107,3.04581 0.19417,0.001 1.23798,0.39384 2.31976,0.87281 1.53156,0.67812 4.52916,0.99977 7.40936,0.96687 2.8802,0.0329 5.87781,-0.28875 7.40937,-0.96687 1.08178,-0.47897 2.12559,-0.87181 2.31976,-0.87281 0.53972,-0.003 5.25484,-2.03722 7.06106,-3.04581 0.88246,-0.49277 2.20363,-1.47018 2.93574,-2.17196 0.73211,-0.70177 1.44144,-1.27589 1.57613,-1.27589 0.13469,0 1.80843,-1.30514 3.71967,-2.90008 3.05782,-2.55178 5.74074,-5.85935 8.5199,-10.50479 1.65123,-2.7601 4.5952,-10.75508 5.30613,-14.40946 1.01251,-5.20464 1.96235,-6.87423 2.74712,-4.82916 0.54675,1.42482 -0.27425,15.68145 -1.21181,21.04419 -0.51307,2.9347 -1.10623,6.69269 -1.31827,8.35143 -0.21204,1.65874 -0.7171,3.94087 -1.12189,5.07153 -0.85602,2.3909 -0.47095,3.05222 1.36994,2.35231 0.72109,-0.27416 1.48297,-0.32674 1.69292,-0.11679 0.20995,0.20995 0.47193,1.73152 0.58239,3.38119 0.39354,5.87699 0.81044,7.83047 1.7322,8.12302 0.47555,0.15094 0.86454,0.68473 0.86454,1.18597 0,0.9464 1.2907,5.02514 2.48047,7.83828 0.42806,1.01212 1.00577,1.62219 1.53841,1.62419 0.60301,0.002 0.89834,0.41114 1.00769,1.39527 0.0851,0.76557 0.65918,2.05672 1.27589,2.86907 0.61671,0.81234 1.12138,1.69147 1.12138,1.95389 0,0.26244 0.95984,1.46489 2.1332,2.67218 1.17336,1.2073 2.32191,2.691 2.5523,3.29695 0.30944,0.81433 0.65389,1.02738 1.31827,0.8165 0.59889,-0.19007 1.04761,-0.007 1.34358,0.5488 0.74105,1.391 0.81323,6.26478 0.11731,7.93544 -0.77978,1.87201 -0.1156,2.97071 1.15755,1.9141 0.71039,-0.5896 0.74588,-0.47154 0.42892,1.43452 -0.44536,2.67808 -1.35771,4.43116 -2.79725,5.37435 -1.2442,0.81526 -1.54841,2.03917 -0.50694,2.03917 0.71408,0 4.85362,-3.88176 5.6906,-5.33612 0.50509,-0.87767 0.55231,-0.88193 0.87333,-0.0847 0.22216,0.55162 -0.15041,1.79197 -1.07797,3.59047 -0.84555,1.63949 -1.2307,2.86351 -0.95498,3.03392 0.68947,0.42612 2.57213,-1.54683 3.70055,-3.87778 0.88477,-1.82772 0.96052,-2.52706 0.68471,-6.30248 -0.36249,-4.96221 -1.43747,-7.58087 -4.66638,-11.36364 -1.22813,-1.43878 -2.10943,-2.93508 -2.10943,-3.5822 0,-0.70628 -0.46505,-1.40745 -1.27589,-1.92341 -1.62596,-1.03466 -1.95574,-1.51046 -1.96474,-2.8329 -0.004,-0.64033 -0.9234,-2.04108 -2.28358,-3.47989 -2.193,-2.31979 -2.26774,-2.48774 -2.03191,-4.57543 0.23218,-2.05553 0.14716,-2.26293 -1.64952,-4.02404 -2.15982,-2.11706 -2.65911,-3.48966 -1.94923,-5.35678 0.42263,-1.11161 0.28931,-1.71069 -0.90227,-4.05557 -1.60976,-3.16778 -1.86531,-4.61696 -0.63407,-3.59513 0.4202,0.34873 1.77573,0.6705 3.01222,0.7152 2.10439,0.0761 2.21668,0.0229 1.75803,-0.83405 -1.77358,-3.31396 -1.94097,-5.04385 -2.23604,-23.13658 -0.27678,-16.97189 -0.34078,-17.97188 -1.28984,-20.03443 -0.86532,-1.88054 -0.91349,-2.28387 -0.35864,-3.01584 1.09793,-1.44842 0.74075,-4.05874 -1.26194,-9.22631 -1.92853,-4.97622 -1.93086,-4.99028 -1.41283,-8.27753 0.59471,-3.77377 1.02777,-9.10633 1.16324,-14.32884 0.0887,-3.42081 0.50896,-4.47098 1.80144,-4.49999 0.54565,-0.0123 8.13958,15.17141 8.4708,16.93696 0.17344,0.92448 0.95401,3.27619 1.73477,5.22603 1.17431,2.93341 1.37589,3.96876 1.16634,5.99912 -0.2656,2.57339 0.3112,3.23311 1.53583,1.75751 1.12763,-1.35874 1.46846,-0.72363 1.18287,2.204 -0.18132,1.85881 -0.0472,3.87051 0.37413,5.60328 0.36154,1.4868 0.56,3.0763 0.44081,3.53209 -0.14164,0.54163 0.0933,0.90955 0.67799,1.06246 0.60039,0.15701 1.00848,0.82678 1.24127,2.03605 0.19079,0.99103 0.52327,2.74133 0.73845,3.88969 0.69354,3.70128 1.04556,4.84885 1.85157,6.03167 0.43474,0.63798 1.16631,2.51723 1.62574,4.17597 0.45943,1.65874 1.15116,3.27433 1.53686,3.59048 0.38571,0.31615 1.15752,1.98655 1.71514,3.71192 0.80869,2.5022 1.2224,3.16839 2.04535,3.29076 0.64875,0.0965 1.26587,0.71302 1.66192,1.66088 0.34642,0.82911 0.96697,1.78742 1.37924,2.12958 1.13431,0.94139 2.11781,3.66387 1.79214,4.96146 -0.26343,1.04954 -0.17024,1.1384 1.04696,0.99529 1.17649,-0.13833 1.46182,0.0908 2.38074,1.91306 1.29322,2.56453 1.32138,4.33107 0.10077,6.30607 -1.33555,2.16095 -0.26493,2.69376 1.48259,0.73794 1.13512,-1.27042 1.31672,-1.8557 1.31672,-4.24987 0,-1.6316 0.20074,-2.77657 0.48731,-2.77657 0.89083,0 1.92834,3.28653 1.59628,5.05653 -0.31107,1.65815 -0.31098,1.65808 0.65836,0.78084 0.66725,-0.60386 0.96945,-1.44044 0.96945,-2.68408 0,-2.18907 -0.89859,-4.02399 -3.21893,-6.57014 -0.96178,-1.05537 -1.89586,-2.52619 -2.07584,-3.26854 -0.35835,-1.4781 -2.48711,-3.6917 -4.95628,-5.1542 -1.35625,-0.80331 -1.61613,-1.24712 -1.83348,-3.13108 -0.19955,-1.72977 -0.62708,-2.57799 -2.0159,-4.00027 -1.52628,-1.56305 -1.69273,-1.93618 -1.24075,-2.78071 0.55765,-1.04199 -0.0925,-2.79743 -1.89136,-5.10563 -1.04549,-1.3415 -1.10243,-2.52444 -0.15916,-3.30729 0.61942,-0.51407 0.55545,-0.83903 -0.53692,-2.7249 -0.68211,-1.1776 -1.8341,-2.82716 -2.55954,-3.66541 -1.56745,-1.81121 -1.66136,-2.89359 -0.35398,-4.07675 0.81579,-0.73828 0.91651,-1.19653 0.65112,-2.96623 -0.17263,-1.15119 -1.02448,-3.43197 -1.8929,-5.06842 -1.47005,-2.77014 -2.04039,-5.15869 -1.23094,-5.15369 0.19139,0.001 1.37494,0.52322 2.63034,1.16013 4.05692,2.05821 4.3883,1.48443 1.87585,-3.25148 -0.90296,-1.70207 -2.1602,-4.6824 -2.79363,-6.62285 -1.35884,-4.16271 -3.58319,-8.2765 -6.78615,-12.55117 -1.27567,-1.70252 -3.11569,-4.45303 -4.08915,-6.11177 -0.97345,-1.65874 -2.31159,-3.52166 -2.97347,-4.14032 -0.66187,-0.61866 -1.20354,-1.6173 -1.20354,-2.21898 0,-3.63718 -5.5399,-8.48786 -9.69398,-8.48786 -0.71435,0 -1.93187,-0.3162 -2.70578,-0.70228 -0.7739,-0.38607 -2.965,-0.94971 -4.86895,-1.25264 l -3.46181,-0.55087 2.43603,-2.37815 c 1.95373,-1.90745 2.61629,-2.96548 3.34657,-5.34437 0.5008,-1.63136 1.19829,-3.09275 1.54977,-3.24787 3.16585,-1.39715 4.43572,-2.35568 5.19193,-3.91811 0.8369,-1.72913 2.12178,-3.00295 5.48597,-5.43998 2.41114,-1.74661 5.22901,-6.19054 9.49968,-14.980471 3.9851,-8.20216 7.42062,-14.052365 9.6051,-16.356108 1.86806,-1.970053 1.20712,-2.794312 -1.20458,-1.501717 -2.10366,1.127498 -5.8999,1.276567 -5.8999,0.231511 0,-0.380085 1.04032,-1.839995 2.31201,-3.244247 1.27169,-1.404244 2.63883,-3.335202 3.03805,-4.290692 0.39923,-0.955485 1.15507,-2.194028 1.68,-2.752805 1.12063,-1.192839 0.79755,-2.012796 -0.79375,-2.012796 -1.52155,0 -1.4749,-1.163185 0.14315,-3.556889 4.12529,-6.102839 4.75578,-7.141612 4.75578,-7.832079 0,-0.418936 -0.4172,-0.870606 -0.92759,-1.004076 -0.51038,-0.133463 -0.92811,-0.32781 -0.92811,-0.432014 0,-0.104203 0.70075,-1.593707 1.55701,-3.309874 1.81159,-3.630893 2.25512,-5.125714 2.3735,-7.992276 0.0474,-1.148361 0.62673,-3.409979 1.28726,-5.026052 1.18367,-2.896013 1.18835,-2.951445 0.31161,-3.82819 -1.30225,-1.302247 -1.11446,-2.074174 1.09709,-4.50515 4.3531,-4.785003 5.56504,-6.574351 4.95267,-7.312216 -0.68463,-0.824923 0.20475,-1.992099 2.68562,-3.525366 1.24077,-0.766818 2.49243,-0.924914 4.62525,-1.427301 -0.55947,-0.976243 0.66521,-1.625036 2.12297,-1.928866 l -3.20723,-0.834891 c 0.19108,-1.979375 1.91739,-1.40003 3.0736,-1.770852 -1.97791,-1.04666 -3.17041,-0.129799 -4.46391,0.534539 0,0 -1.74865,-0.792296 -2.59251,-0.534539 -1.24698,0.380889 -2.73575,2.795695 -2.73575,2.795695 -1.50459,1.537647 -2.73575,3.061346 -2.73575,3.38584 0,0.324493 -0.86088,1.415386 -1.91306,2.424141 -2.28355,2.189314 -3.29736,4.320025 -4.35478,9.15138 -0.57788,2.640327 -1.04222,3.741012 -1.73426,4.111376 -0.87877,0.47031 -0.92441,0.79615 -0.65112,4.646229 0.24635,3.470672 0.17902,4.184518 -0.41548,4.412649 -1.35309,0.519229 -2.15785,2.939481 -2.14405,6.449219 0.0126,3.202744 -0.0657,3.459022 -1.52187,4.958355 -1.76369,1.816005 -3.22543,6.135886 -2.93057,8.661487 0.15776,1.351352 -0.0647,1.883225 -1.30794,3.126423 -1.76097,1.760979 -3.44216,5.928087 -3.44216,8.532296 0,2.343685 -0.85519,2.396416 -2.08773,0.128675 -0.51038,-0.939051 -1.21656,-1.800005 -1.56941,-1.91358 -0.52262,-0.168222 -0.56662,0.212606 -0.23823,2.056206 0.76895,4.316926 0.47184,6.29647 -1.3994,9.328113 -0.95035,1.539701 -2.24791,4.442447 -2.88354,6.450769 -0.63563,2.008323 -1.53131,4.291645 -1.99006,5.073592 -0.45876,0.781947 -1.28536,2.777924 -1.8371,4.435902 -1.38047,4.1483 -4.10258,8.44623 -5.09943,8.05119 -0.41695,-0.16524 -1.46459,-0.41899 -2.32802,-0.56379 -1.01059,-0.16948 -1.65189,-0.57657 -1.7999,-1.14257 -1.1134,-4.25767 -6.2688,-11.296034 -9.69191,-13.231745 -7.48173,-4.230782 -9.40161,-5.645576 -11.0293,-8.129738 -0.61547,-0.939329 -0.68443,-1.43121 -0.30127,-2.147154 0.83769,-1.565257 0.60669,-4.457999 -0.43099,-5.397088 -2.19282,-1.984491 0.16919,-2.805731 4.09071,-1.422135 3.38355,1.193781 7.37048,-0.633762 8.94468,-4.100007 2.07659,-4.572545 0.0901,-8.035716 -3.02049,-5.265828 -0.98782,0.879608 -1.19444,1.518778 -1.31414,4.059698 -0.12958,2.750569 -0.25182,3.068135 -1.38802,3.6127 -1.06695,0.511377 -1.66405,0.459867 -4.16047,-0.359666 -1.65411,-0.543015 -3.44233,-0.840909 -4.13463,-0.688848 -0.8382,0.1841 -1.30275,0.05188 -1.48467,-0.422196 -0.36292,-0.945761 1.46983,-3.530549 3.16312,-4.461227 1.87521,-1.030663 2.03237,-2.895221 0.48834,-5.799129 -0.65127,-1.224878 -1.18443,-2.513656 -1.18443,-2.863908 0,-0.350248 -0.52714,-0.87688 -1.1715,-1.170472 -1.04844,-0.4777 -1.34052,-0.370171 -2.77864,1.02371 l -1.60714,1.557528 -1.22473,-1.130162 c -0.67379,-0.621409 -1.51648,-1.813222 -1.87224,-2.648419 -0.88696,-2.082281 -0.21788,-3.166081 2.80862,-4.551658 3.18508,-1.458177 5.84563,-4.493975 5.84563,-6.669879 0,-1.211993 -3.02499,-3.418237 -5.72213,-4.173387 -3.12996,-0.876337 -3.6981,-0.599162 -4.24677,2.070674 -0.58978,2.869912 -2.23391,6.02501 -3.60856,6.925676 -0.64306,0.421325 -1.7046,0.495715 -2.76831,0.299206 -1.06371,0.196509 -2.12525,0.122124 -2.7683,-0.299206 -1.37465,-0.900661 -3.01878,-4.055767 -3.60857,-6.925676 -0.54867,-2.669841 -1.11681,-2.947013 -4.24677,-2.070674 -2.69714,0.75515 -5.72213,2.961397 -5.72213,4.173387 0,2.175912 2.66055,5.211699 5.84564,6.669879 3.0265,1.38558 3.69557,2.46938 2.80861,4.551658 -0.35576,0.835203 -1.19844,2.027008 -1.87223,2.648419 l -1.22474,1.130162 -1.60713,-1.557528 c -1.43812,-1.393878 -1.7302,-1.50141 -2.77864,-1.02371 -0.64437,0.293592 -1.17151,0.820232 -1.17151,1.170472 0,0.35026 -0.53315,1.639027 -1.18442,2.863908 -1.54403,2.90391 -1.38687,4.768469 0.48834,5.799129 1.69329,0.93068 3.52603,3.515466 3.16311,4.461227 -0.18192,0.474089 -0.64646,0.606296 -1.48466,0.422196 -0.69231,-0.152059 -2.48053,0.145838 -4.13463,0.688848 -2.49642,0.819539 -3.09352,0.871048 -4.16047,0.359666 -1.1362,-0.54457 -1.25845,-0.862128 -1.38803,-3.6127 -0.1197,-2.540918 -0.32632,-3.180088 -1.31413,-4.059698 -3.11059,-2.769891 -5.09708,0.693278 -3.02049,5.265828 1.57419,3.46624 5.56112,5.293788 8.94467,4.100007 3.92152,-1.383599 6.28354,-0.562353 4.09071,1.422135 -1.03768,0.939091 -1.26867,3.831828 -0.43098,5.397088 0.38317,0.715938 0.31419,1.207825 -0.30127,2.147154 -1.62769,2.48417 -3.54758,3.898958 -11.02931,8.129738 -3.42311,1.935711 -8.5785,8.974075 -9.69191,13.231745 -0.14801,0.566 -0.78931,0.97309 -1.79989,1.14257 -0.86344,0.1448 -1.91107,0.39855 -2.32802,0.56379 -0.99685,0.39504 -3.71896,-3.90289 -5.09943,-8.05119 -0.55174,-1.657978 -1.37835,-3.653952 -1.8371,-4.435902 -0.45875,-0.781942 -1.35443,-3.065272 -1.99006,-5.073592 -0.63563,-2.008319 -1.9332,-4.911068 -2.88355,-6.450769 -1.87123,-3.031641 -2.16833,-5.011184 -1.39939,-9.328113 0.32839,-1.8436 0.2844,-2.224426 -0.23823,-2.056206 -0.35284,0.11358 -1.05903,0.974529 -1.56941,1.91358 -1.232544,2.267738 -2.087733,2.215004 -2.087733,-0.128675 0,-2.604211 -1.681186,-6.771317 -3.442168,-8.532296 -1.243229,-1.243201 -1.465688,-1.775074 -1.307928,-3.126423 0.294849,-2.525601 -1.166892,-6.845477 -2.930572,-8.661487 -1.456169,-1.49933 -1.53447,-1.755613 -1.52187,-4.958355 0.01379,-3.50974 -0.790964,-5.929987 -2.144057,-6.449219 -0.594497,-0.228129 -0.661826,-0.94198 -0.415478,-4.412649 0.273291,-3.850082 0.227648,-4.175919 -0.651121,-4.646229 -0.692041,-0.370358 -1.156382,-1.471046 -1.734261,-4.111376 -1.057421,-4.83135 -2.071225,-6.962061 -4.354775,-9.15138 -1.052168,-1.00875 -1.913062,-2.099641 -1.913062,-2.424141 0,-0.32449 -1.231159,-1.84819 -2.735749,-3.38584 0,0 -1.477567,-2.453637 -2.735749,-2.795695 -0.819598,-0.222822 -2.458874,0.668174 -2.458874,0.668174 -1.138168,-0.569248 -2.453888,-0.872169 -4.998449,0.668174 z M 116.04325,188.98167 c 0.095,0.035 0.15256,0.28066 0.13746,0.6475 -0.0223,0.54051 -0.13197,0.65074 -0.28009,0.28061 -0.13402,-0.33494 -0.11746,-0.73517 0.0367,-0.88935 0.0385,-0.0386 0.0742,-0.0504 0.10594,-0.0388 z m 82.22237,0 c 0.0316,-0.0117 0.0674,2.1e-4 0.10593,0.0388 0.15416,0.15418 0.17072,0.55441 0.0367,0.88935 -0.14812,0.37013 -0.25778,0.2599 -0.28008,-0.28061 -0.0151,-0.36684 0.0425,-0.61255 0.13746,-0.6475 z"
       id="path6316"
       inkscape:connector-curvature="0"
       sodipodi:nodetypes="ccccccccccsssscssccssccccccccccssscccccccccccccccccccsccsscccccccccccccccccccccccccscsccccccsccccsccccsccsccccccccscccsscccscsccsscscccccccccsccccsscssccsscccsccccccccsccsccccsccccscccccsccscccccccccccccssccccccccccssccsccccscccccccccccccccssccccscccscsscccscscsscccscccccccscscsccsccccsccscscccsccccccccccsccccscccccsscccccccscsccccsccccccccccsccccccccsccccscccccccssscsccccccccccccccc" />
  </g>
</svg>
