<?xml version="1.0" encoding="UTF-8" standalone="no"?>
<!-- Created with Inkscape (http://www.inkscape.org/) -->

<svg
   xmlns:dc="http://purl.org/dc/elements/1.1/"
   xmlns:cc="http://creativecommons.org/ns#"
   xmlns:rdf="http://www.w3.org/1999/02/22-rdf-syntax-ns#"
   xmlns:svg="http://www.w3.org/2000/svg"
   xmlns="http://www.w3.org/2000/svg"
   xmlns:sodipodi="http://sodipodi.sourceforge.net/DTD/sodipodi-0.dtd"
   xmlns:inkscape="http://www.inkscape.org/namespaces/inkscape"
   width="300mm"
   height="300mm"
   viewBox="0 0 300 300"
   version="1.1"
   id="svg31716"
   inkscape:version="0.92.4 (5da689c313, 2019-01-14)"
   sodipodi:docname="Blattoptera icon.svg">
  <defs
     id="defs31710" />
  <sodipodi:namedview
     id="base"
     pagecolor="#ffffff"
     bordercolor="#666666"
     borderopacity="1.0"
     inkscape:pageopacity="0.0"
     inkscape:pageshadow="2"
     inkscape:zoom="0.35"
     inkscape:cx="283.61523"
     inkscape:cy="514.32653"
     inkscape:document-units="mm"
     inkscape:current-layer="layer1"
     showgrid="false"
     inkscape:window-width="1366"
     inkscape:window-height="715"
     inkscape:window-x="-8"
     inkscape:window-y="-8"
     inkscape:window-maximized="1" />
  <metadata
     id="metadata31713">
    <rdf:RDF>
      <cc:Work
         rdf:about="">
        <dc:format>image/svg+xml</dc:format>
        <dc:type
           rdf:resource="http://purl.org/dc/dcmitype/StillImage" />
        <dc:title></dc:title>
      </cc:Work>
    </rdf:RDF>
  </metadata>
  <g
     inkscape:label="Layer 1"
     inkscape:groupmode="layer"
     id="layer1"
     transform="translate(0,3)">
    <g
       id="g31663"
       transform="matrix(22.328089,0,0,22.328089,-1639.9517,-6738.983)"
       style="fill:#000000">
      <path
         inkscape:connector-curvature="0"
         id="path1525"
         style="fill:#000000;fill-opacity:1;fill-rule:nonzero;stroke:none;stroke-width:0.35277778"
         d="m 82.807855,310.26595 c 0.03528,0.0166 0.128411,0.0438 0.150989,0.0808 l -0.0035,-0.004 c -0.0018,-0.0289 -0.02681,-0.0462 -0.04339,-0.0621 l -0.07902,-0.0522" />
      <g
         id="g31630"
         style="fill:#000000">
        <path
           d="m 79.377091,311.56206 c -0.118533,0.0794 -0.293511,0.14075 -0.386291,0.25717 -0.08608,0.10795 0.107597,0.0247 0.1524,0.008 0.07373,-0.0272 0.162277,-0.0381 0.233891,-0.0702 l 0.03387,-0.0229"
           style="fill:#000000;fill-opacity:1;fill-rule:nonzero;stroke:none;stroke-width:0.35277778"
           id="path1489"
           inkscape:connector-curvature="0" />
        <path
           d="m 80.928961,311.56206 c 0.118533,0.0794 0.292805,0.1404 0.385938,0.25717 0.08608,0.10795 -0.10795,0.0247 -0.1524,0.008 -0.07338,-0.0272 -0.161925,-0.0381 -0.233538,-0.0706 l -0.03528,-0.0226"
           style="fill:#000000;fill-opacity:1;fill-rule:nonzero;stroke:none;stroke-width:0.35277778"
           id="path1491"
           inkscape:connector-curvature="0" />
        <path
           d="m 77.497491,310.26595 c -0.03563,0.0166 -0.128058,0.0434 -0.150636,0.0804 l 0.0039,-0.003 c 0.0014,-0.0289 0.02646,-0.0462 0.04374,-0.0621 l 0.07832,-0.0529"
           style="fill:#000000;fill-opacity:1;fill-rule:nonzero;stroke:none;stroke-width:0.35277778"
           id="path1507"
           inkscape:connector-curvature="0" />
        <path
           d="m 77.468211,310.24302 c -0.0046,0.0452 -7.06e-4,0.15769 -0.02646,0.19438 l 0.0021,-0.005 c 0.02434,-0.01 0.03034,-0.043 0.03916,-0.067 0.0071,-0.0205 0.02011,-0.0783 0.02328,-0.10301"
           style="fill:#000000;fill-opacity:1;fill-rule:nonzero;stroke:none;stroke-width:0.35277778"
           id="path1509"
           inkscape:connector-curvature="0" />
        <path
           d="m 78.548416,314.31337 c -0.02928,0.0268 -0.110066,0.0794 -0.12065,0.12206 l 0.0018,-0.004 c -0.0063,-0.0286 0.0127,-0.0519 0.02399,-0.0723 l 0.05927,-0.0741"
           style="fill:#000000;fill-opacity:1;fill-rule:nonzero;stroke:none;stroke-width:0.35277778"
           id="path1511"
           inkscape:connector-curvature="0" />
        <path
           d="m 78.512433,314.30067 c 0.0099,0.0452 0.04621,0.15134 0.03316,0.19262 v -0.005 c 0.0194,-0.0166 0.01623,-0.0501 0.01764,-0.0751 3.53e-4,-0.0226 -0.0039,-0.0811 -0.0074,-0.10513"
           style="fill:#000000;fill-opacity:1;fill-rule:nonzero;stroke:none;stroke-width:0.35277778"
           id="path1513"
           inkscape:connector-curvature="0" />
        <g
           id="g31599"
           style="fill:#000000">
          <path
             inkscape:connector-curvature="0"
             id="path1499"
             style="fill:#000000;fill-opacity:1;fill-rule:nonzero;stroke:none;stroke-width:0.35277778"
             d="m 79.063825,308.64564 c -0.01376,-0.0162 -0.06138,-0.0395 -0.08537,-0.0568 -0.03387,-0.025 -0.05927,-0.054 -0.09137,-0.0794 -0.03105,-0.0251 -0.09772,-0.0716 -0.129117,-0.11924 l 0.0014,0.002 c -0.02011,0.0794 -0.03739,0.15769 -0.07303,0.23318 -0.04057,0.0833 -0.07232,0.16087 -0.107244,0.25823 -0.02999,0.0833 -0.06844,0.16299 -0.0949,0.24871 -0.02117,0.0663 -0.03598,0.15769 -0.07373,0.21696 -0.01834,0.0289 -0.0448,0.0356 -0.07197,0.0557 -0.04586,0.0339 -0.08819,0.0723 -0.128411,0.11254 -0.07796,0.0772 -0.152752,0.16192 -0.237772,0.22719 -0.133703,0.10336 -0.240947,0.23636 -0.344311,0.37218 -0.02716,0.037 -0.130528,0.24941 -0.188383,0.14887 -0.01623,-0.0289 0.08996,-0.133 0.127,-0.18062 0.03704,-0.0476 0.06456,-0.10407 0.10548,-0.15099 0.07761,-0.0931 0.165806,-0.19333 0.259645,-0.26706 0.07761,-0.0617 0.149577,-0.13017 0.221544,-0.1979 0.02505,-0.0229 0.07867,-0.0504 0.09349,-0.0766 0.01587,-0.0289 3.53e-4,-0.0709 0.0074,-0.10195 0.01094,-0.0462 0.03316,-0.0889 0.05221,-0.1337 0.01729,-0.0455 0.03739,-0.09 0.05856,-0.133 0.0381,-0.0762 0.07444,-0.15311 0.09878,-0.23495 0.01905,-0.0614 0.04621,-0.11501 0.06879,-0.17427 0.02328,-0.0617 0.04092,-0.12242 0.0702,-0.18309 0.03316,-0.067 0.06491,-0.13476 0.109714,-0.1965 l 0.03245,-0.0314 c 0.04198,-0.0258 0.102659,-0.0328 0.15487,-0.0226 0.08961,0.0176 0.205317,0.073 0.275519,0.133" />
          <path
             inkscape:connector-curvature="0"
             id="path1501"
             style="fill:#000000;fill-opacity:1;fill-rule:nonzero;stroke:none;stroke-width:0.35277778"
             d="m 78.982333,310.10297 c -0.119945,0.009 -0.252589,0.0691 -0.367242,0.10654 -0.112889,0.0374 -0.364772,0.19191 -0.384175,0.21519 -0.01764,0.0198 -0.02646,0.0476 -0.02434,0.073 l 0.01446,0.01 c -0.0314,-0.0159 -0.05574,0.0938 -0.05715,0.10971 -0.0067,0.0596 0.01341,0.11783 0.02752,0.17498 0.01517,0.0607 0.04092,0.11501 0.0635,0.17251 0.07303,0.18697 0.110067,0.39017 0.16757,0.58173 0.01764,0.06 0.09913,0.37148 0.12453,0.46531 0.01023,0.0445 0.08572,0.31821 0.112889,0.41134 0.01552,0.054 0.0381,0.10725 0.06138,0.1584 0.0187,0.0402 0.05856,0.0995 0.06703,0.14182 0.0053,0.0367 -0.0042,0.0737 -0.0099,0.1083 -0.0088,0.0656 -0.01834,0.133 -0.02505,0.19791 -0.0127,0.13053 -0.03881,0.25682 -0.06174,0.38382 -0.02258,0.12735 -0.05927,0.25012 -0.08678,0.37959 -0.02752,0.12876 -0.05362,0.25964 -0.08572,0.38841 -0.01129,0.0466 -0.05609,0.14605 -0.0074,0.15945 0.05327,0.0155 0.06174,-0.036 0.0695,-0.0748 0.01587,-0.0818 0.04762,-0.16333 0.06844,-0.24518 0.04198,-0.1658 0.07973,-0.33372 0.107598,-0.50306 0.02328,-0.14746 0.06138,-0.28857 0.08255,-0.43638 0.01164,-0.0818 0.02469,-0.16369 0.03739,-0.24554 0.0067,-0.0466 0.01552,-0.0917 0.01693,-0.13793 0.0014,-0.0332 0.0187,-0.0392 0.02893,-0.0667 0.02011,-0.0554 -0.01164,-0.10477 -0.03351,-0.1531 -0.02505,-0.0497 -0.09384,-0.24518 -0.107597,-0.29634 -0.02258,-0.0875 -0.04339,-0.17321 -0.07232,-0.25964 -0.01305,-0.0388 -0.02646,-0.084 -0.0381,-0.12488 -0.03246,-0.10478 -0.06456,-0.21202 -0.08925,-0.31856 -0.0381,-0.15946 -0.08819,-0.32174 -0.148872,-0.47449 -0.01799,-0.048 -0.02963,-0.097 -0.04763,-0.14605 -0.01376,-0.0356 -0.05115,-0.0667 -0.05786,-0.10513 -0.0088,-0.0483 0.04163,-0.0663 0.08185,-0.0871 0.09208,-0.0473 0.195086,-0.0688 0.29598,-0.084 0.137231,-0.0208 0.275872,-0.0399 0.418042,-0.0557 l 0.04269,-0.009" />
          <path
             inkscape:connector-curvature="0"
             id="path1517"
             style="fill:#000000;fill-opacity:1;fill-rule:nonzero;stroke:none;stroke-width:0.35277778"
             d="m 81.241169,308.64564 c 0.01446,-0.0162 0.06068,-0.0395 0.08572,-0.0568 0.03422,-0.025 0.05891,-0.0536 0.09172,-0.0794 0.03069,-0.0251 0.09737,-0.0713 0.129117,-0.11924 l -0.0014,0.002 c 0.02081,0.0794 0.03739,0.15839 0.07303,0.23353 0.03986,0.0829 0.07303,0.16052 0.106891,0.25788 0.02963,0.084 0.06844,0.16299 0.0949,0.24871 0.02152,0.0663 0.03598,0.15805 0.07373,0.21696 0.01799,0.0296 0.0441,0.0356 0.07126,0.0561 0.04657,0.0335 0.08819,0.072 0.129117,0.11254 0.07726,0.0769 0.1524,0.16157 0.237419,0.22684 0.13335,0.10371 0.242359,0.23636 0.343606,0.37253 0.02752,0.0367 0.13088,0.24906 0.188736,0.14852 0.01623,-0.0289 -0.08996,-0.133 -0.127,-0.17992 -0.03669,-0.0483 -0.06456,-0.10477 -0.104422,-0.15169 -0.07796,-0.0928 -0.166864,-0.19262 -0.259997,-0.26706 -0.07867,-0.0617 -0.149931,-0.13017 -0.22225,-0.1979 -0.02434,-0.0226 -0.07796,-0.0504 -0.09278,-0.0762 -0.01658,-0.0286 -3.53e-4,-0.0713 -0.0078,-0.1016 -0.01129,-0.0469 -0.03316,-0.0896 -0.05186,-0.13406 -0.01799,-0.0459 -0.03704,-0.09 -0.05891,-0.13335 -0.0381,-0.0762 -0.07408,-0.15275 -0.09807,-0.23424 -0.02011,-0.0614 -0.04621,-0.11501 -0.06844,-0.17498 -0.02434,-0.0614 -0.04198,-0.12242 -0.07161,-0.18274 -0.03246,-0.067 -0.06385,-0.13511 -0.109009,-0.19685 l -0.03281,-0.0314 c -0.04198,-0.0258 -0.101953,-0.0328 -0.154517,-0.0222 -0.08996,0.0176 -0.206375,0.0727 -0.276225,0.13264" />
          <path
             inkscape:connector-curvature="0"
             id="path1519"
             style="fill:#000000;fill-opacity:1;fill-rule:nonzero;stroke:none;stroke-width:0.35277778"
             d="m 81.323366,310.10297 c 0.119592,0.009 0.251883,0.0691 0.366889,0.10654 0.113242,0.0374 0.364067,0.19191 0.384528,0.21519 0.01729,0.0198 0.02575,0.0476 0.02399,0.073 l -0.01517,0.01 c 0.03069,-0.0159 0.05574,0.0938 0.0575,0.10971 0.0074,0.0596 -0.01376,0.11783 -0.02787,0.17498 -0.01482,0.0607 -0.04057,0.11501 -0.06244,0.17251 -0.07303,0.18697 -0.110067,0.39017 -0.168275,0.58173 -0.0187,0.06 -0.09913,0.37148 -0.123825,0.46531 -0.0127,0.0445 -0.08714,0.31821 -0.1143,0.41134 -0.01517,0.054 -0.0374,0.10725 -0.06068,0.1584 -0.0187,0.0402 -0.05891,0.0995 -0.06703,0.14182 -0.0063,0.0367 0.0042,0.0737 0.0085,0.1083 0.01094,0.0656 0.01976,0.133 0.02575,0.19791 0.0127,0.13053 0.03951,0.25682 0.06174,0.38382 0.02258,0.12735 0.05962,0.25012 0.08678,0.37959 0.02752,0.12876 0.05397,0.25964 0.08608,0.38841 0.01094,0.0466 0.05644,0.14605 0.0074,0.15945 -0.05221,0.0155 -0.06209,-0.036 -0.0695,-0.0748 -0.01587,-0.0818 -0.04692,-0.16333 -0.06738,-0.24518 -0.04339,-0.1658 -0.08079,-0.33372 -0.107598,-0.50306 -0.02399,-0.14746 -0.06209,-0.28857 -0.0829,-0.43638 -0.01235,-0.0818 -0.0254,-0.16369 -0.03775,-0.24554 -0.0074,-0.0466 -0.01482,-0.0917 -0.01729,-0.13793 -0.0014,-0.0332 -0.01905,-0.0392 -0.02857,-0.0667 -0.0194,-0.0554 0.01058,-0.10477 0.03422,-0.1531 0.02399,-0.0497 0.09349,-0.24518 0.106891,-0.29634 0.02258,-0.0875 0.04339,-0.17321 0.07232,-0.25964 0.01305,-0.0388 0.02716,-0.084 0.0388,-0.12488 0.0314,-0.10478 0.06385,-0.21202 0.08855,-0.31856 0.03775,-0.15946 0.08819,-0.32174 0.148166,-0.47449 0.0187,-0.048 0.03034,-0.097 0.04833,-0.14605 0.01411,-0.0356 0.05151,-0.0667 0.05856,-0.10513 0.0081,-0.0483 -0.04198,-0.0663 -0.0822,-0.0871 -0.09208,-0.0473 -0.195086,-0.0688 -0.296334,-0.084 -0.137583,-0.0208 -0.275872,-0.0399 -0.418041,-0.0557 l -0.04269,-0.009" />
          <g
             id="g31578"
             style="fill:#000000">
            <path
               d="m 79.908374,306.66303 c -0.0046,-0.0392 -0.0441,-0.0825 -0.06385,-0.11289 -0.0187,-0.0296 -0.04974,-0.0571 -0.09454,-0.0367 -0.08431,0.0392 0.03104,0.18274 0.0381,0.23601"
               style="fill:#000000;fill-opacity:1;fill-rule:nonzero;stroke:none;stroke-width:0.35277778"
               id="path1483"
               inkscape:connector-curvature="0" />
            <g
               id="g31562"
               style="fill:#000000">
              <path
                 inkscape:connector-curvature="0"
                 id="path1479"
                 style="fill:#000000;fill-opacity:1;fill-rule:nonzero;stroke:none;stroke-width:0.35277778"
                 d="m 80.152497,312.39532 c 0.05221,-0.001 0.148519,-0.0388 0.222955,-0.0889 0.06491,-0.0434 0.145697,-0.0818 0.201084,-0.13794 0.09137,-0.0924 0.158397,-0.2039 0.2159,-0.31715 0.04692,-0.0935 0.09772,-0.18732 0.117827,-0.28998 0.02011,-0.0991 0.03105,-0.20002 0.06315,-0.29704 0.02787,-0.0861 0.07373,-0.16827 0.104422,-0.254 0.02258,-0.0628 0.04198,-0.12911 0.06068,-0.19438 0.02611,-0.0935 0.05574,-0.16616 0.07726,-0.25576 0.01658,-0.0737 0.02293,-0.12277 0.03316,-0.17886 0.01623,-0.0843 0.02928,-0.19262 0.04339,-0.27693 0.0067,-0.0423 0.06068,-0.45755 0.06632,-0.50377 0.0056,-0.0628 0.0056,-0.127 0.01235,-0.18909 0.0092,-0.0984 0.01623,-0.19226 0.02434,-0.28927 0.01517,-0.16581 0.01376,-0.33479 0.0056,-0.49989 -0.0028,-0.0628 -0.01164,-0.127 -0.01799,-0.18944 -0.006,-0.0621 -0.02434,-0.12206 -0.03069,-0.18486 -0.006,-0.0677 -0.02575,-0.14217 -0.04727,-0.20708 -0.04269,-0.1277 -0.06773,-0.24306 -0.152753,-0.35031 -0.04057,-0.0508 -0.01058,-0.0596 0.01411,-0.10407 0.02646,-0.0469 0.04304,-0.11359 0.04692,-0.16686 0.0049,-0.079 -0.01729,-0.15628 -0.05151,-0.22684 -0.07726,-0.16227 -0.184503,-0.31891 -0.312208,-0.44555 -0.06068,-0.0614 -0.153459,-0.21379 -0.252589,-0.20673 0.06068,-0.004 -0.01658,-0.11113 -0.03563,-0.12736 -0.03951,-0.0346 -0.08996,-0.0536 -0.134055,-0.0801 -0.08608,-0.0515 -0.171803,-0.0727 -0.276931,-0.0727 h 0.0035 c -0.105481,0 -0.191559,0.0212 -0.276931,0.0727 -0.04445,0.0265 -0.09454,0.0455 -0.133702,0.0801 -0.02081,0.0162 -0.09666,0.12348 -0.03598,0.12736 -0.09984,-0.007 -0.192264,0.14464 -0.252941,0.20673 -0.127353,0.12664 -0.235656,0.28328 -0.312562,0.44555 -0.03457,0.0706 -0.0568,0.14782 -0.0508,0.22684 0.0032,0.0533 0.01976,0.11994 0.04692,0.16686 0.02505,0.0445 0.05503,0.0529 0.01482,0.10407 -0.08573,0.10795 -0.110773,0.22261 -0.153459,0.35031 -0.02152,0.0649 -0.04057,0.13935 -0.04657,0.20708 -0.0067,0.0628 -0.0254,0.12277 -0.03175,0.18486 -0.006,0.0624 -0.01411,0.12664 -0.01764,0.18944 -0.0085,0.1651 -0.0095,0.33479 0.0042,0.49989 0.0085,0.097 0.01587,0.19085 0.0254,0.28927 0.006,0.0621 0.0063,0.1263 0.01305,0.18909 0.0049,0.0462 0.05856,0.46144 0.06597,0.50377 0.01341,0.0843 0.02716,0.19262 0.04375,0.27693 0.01058,0.0561 0.01552,0.10477 0.03281,0.17886 0.02152,0.0889 0.05115,0.16228 0.07726,0.25576 0.0187,0.0653 0.03739,0.13159 0.06068,0.19438 0.03069,0.085 0.07585,0.16722 0.104422,0.254 0.0314,0.097 0.04375,0.19791 0.06244,0.29704 0.02046,0.10266 0.07161,0.1965 0.118181,0.28998 0.05786,0.11325 0.125236,0.22472 0.215547,0.31715 0.05539,0.0561 0.136172,0.0946 0.201436,0.13794 0.07585,0.0501 0.170744,0.0889 0.224014,0.0889" />
              <path
                 inkscape:connector-curvature="0"
                 id="path1481"
                 style="fill:#000000;fill-opacity:1;fill-rule:nonzero;stroke:none;stroke-width:0.35277778"
                 d="m 79.745391,306.57978 c 0,0 -0.126647,-0.34043 -0.342547,-0.68545 -0.214842,-0.34467 -0.600781,-0.89641 -0.980017,-1.40441 -0.378883,-0.50871 -0.559152,-0.75001 -0.925689,-1.19839 -0.359833,-0.43991 -0.875241,-1.04739 -0.888294,-1.04739 l -0.0018,-0.0296 0.04586,0.0229 c 0.01446,0 0.530578,0.60678 0.890059,1.0467 0.366536,0.44802 0.547158,0.68968 0.925336,1.19803 0.379941,0.508 0.78493,1.0601 1.00083,1.40441 0.214842,0.34466 0.344311,0.68544 0.344311,0.68544" />
              <path
                 inkscape:connector-curvature="0"
                 id="path1485"
                 style="fill:#000000;fill-opacity:1;fill-rule:nonzero;stroke:none;stroke-width:0.35277778"
                 d="m 80.560308,306.57978 c 0,0 0.127,-0.34043 0.342194,-0.68475 0.215547,-0.34537 0.601134,-0.8964 0.980017,-1.40511 0.378883,-0.50871 0.559505,-0.75001 0.926394,-1.19768 0.360539,-0.43991 0.875595,-1.0481 0.887589,-1.0481 l 0.0028,-0.0296 -0.04727,0.0229 c -0.0134,0 -0.529872,0.60678 -0.890411,1.0467 -0.36583,0.44873 -0.545747,0.69003 -0.924983,1.19803 -0.379236,0.50906 -0.784225,1.0601 -1.000831,1.40476 -0.214841,0.34502 -0.343605,0.68509 -0.343605,0.68509" />
            </g>
            <path
               d="m 80.396619,306.66374 c 0.006,-0.0399 0.0448,-0.0833 0.06385,-0.1136 0.0194,-0.0296 0.0508,-0.0571 0.09454,-0.0367 0.08467,0.0392 -0.03104,0.18274 -0.03775,0.23601"
               style="fill:#000000;fill-opacity:1;fill-rule:nonzero;stroke:none;stroke-width:0.35277778"
               id="path1487"
               inkscape:connector-curvature="0" />
            <path
               d="m 79.543955,306.96748 v 0.008 c -0.01235,-0.0296 -0.05115,-0.055 -0.07303,-0.0818 -0.02611,-0.0321 -0.05045,-0.0427 -0.08255,-0.067 -0.0568,-0.042 -0.128764,-0.0889 -0.161572,-0.15734 -0.01199,-0.0243 -0.02822,-0.11042 0.02787,-0.0843 0.02963,0.0138 0.02611,0.0656 0.04762,0.0907 0.0254,0.0289 0.05997,0.0653 0.09031,0.0907 0.03034,0.0261 0.06526,0.0501 0.09913,0.0723 0.03387,0.0212 0.09701,0.0593 0.103717,0.0949"
               style="fill:#000000;fill-opacity:1;fill-rule:nonzero;stroke:none;stroke-width:0.35277778"
               id="path1493"
               inkscape:connector-curvature="0" />
            <path
               d="m 80.761391,306.96748 v 0.008 c 0.01341,-0.0296 0.05186,-0.0554 0.07267,-0.0818 0.02611,-0.0321 0.05115,-0.0427 0.08326,-0.067 0.0575,-0.042 0.129117,-0.0889 0.161925,-0.15734 0.01164,-0.0247 0.02787,-0.11042 -0.02752,-0.0843 -0.03069,0.0138 -0.02681,0.0653 -0.04833,0.0903 -0.0247,0.0286 -0.06033,0.0649 -0.08925,0.0903 -0.03104,0.0268 -0.06562,0.0508 -0.100189,0.073 -0.03351,0.0212 -0.09666,0.0593 -0.103011,0.0949"
               style="fill:#000000;fill-opacity:1;fill-rule:nonzero;stroke:none;stroke-width:0.35277778"
               id="path1495"
               inkscape:connector-curvature="0" />
            <path
               d="m 79.326291,307.34389 c -0.0321,-0.0434 -0.08079,-0.0811 -0.119239,-0.12171 -0.03845,-0.0402 -0.06985,-0.085 -0.106539,-0.127 -0.03422,-0.0399 -0.07444,-0.0794 -0.117827,-0.109 -0.0568,-0.0406 -0.09701,-0.0579 -0.117475,-0.1263 -0.02399,-0.0847 -0.05045,-0.16863 -0.08185,-0.25153 -0.03316,-0.09 -0.05503,-0.18239 -0.106186,-0.26529 -0.02399,-0.0367 -0.16263,-0.30868 -0.20955,-0.23883 -0.02752,0.0423 0.04304,0.11395 0.06456,0.14217 0.03669,0.0473 0.05821,0.0942 0.08185,0.1457 0.04657,0.10019 0.09031,0.1965 0.121708,0.30198 0.01164,0.036 0.01729,0.0772 0.02752,0.11571 0.02152,0.0755 0.03246,0.14605 0.07585,0.21413 0.04904,0.0755 0.113595,0.14041 0.1778,0.2025 0.08149,0.079 0.158397,0.16721 0.244475,0.24377 l 0.02187,0.0159"
               style="fill:#000000;fill-opacity:1;fill-rule:nonzero;stroke:none;stroke-width:0.35277778"
               id="path1497"
               inkscape:connector-curvature="0" />
            <path
               d="m 78.478213,306.13386 c 0,-0.0406 0.01729,-0.13546 -0.0071,-0.17215 l 0.0011,0.005 c 0.02505,0.0148 0.02999,0.0444 0.03669,0.0667 l 0.01341,0.0942"
               style="fill:#000000;fill-opacity:1;fill-rule:nonzero;stroke:none;stroke-width:0.35277778"
               id="path1503"
               inkscape:connector-curvature="0" />
            <path
               d="m 78.512433,306.11623 c -0.03916,-0.0236 -0.14217,-0.0695 -0.164395,-0.1069 l 0.0035,0.004 c -0.0011,0.0254 0.02611,0.0455 0.04339,0.0639 l 0.0829,0.0656"
               style="fill:#000000;fill-opacity:1;fill-rule:nonzero;stroke:none;stroke-width:0.35277778"
               id="path1505"
               inkscape:connector-curvature="0" />
            <path
               d="m 80.978702,307.34389 c 0.03246,-0.0434 0.08114,-0.0811 0.119945,-0.121 0.03775,-0.0409 0.06879,-0.0857 0.105127,-0.12771 0.03528,-0.0399 0.07514,-0.0794 0.118534,-0.109 0.05644,-0.0406 0.09737,-0.0579 0.117122,-0.1263 0.02505,-0.0847 0.05151,-0.16863 0.0822,-0.25153 0.03281,-0.09 0.05503,-0.18239 0.107245,-0.26529 0.02293,-0.0367 0.161219,-0.30868 0.208139,-0.23883 0.02752,0.0423 -0.04233,0.11395 -0.0635,0.14217 -0.03634,0.0473 -0.05821,0.0942 -0.08185,0.1457 -0.04762,0.10019 -0.09172,0.1965 -0.122414,0.30198 -0.01129,0.036 -0.01658,0.0772 -0.02646,0.11571 -0.02258,0.0755 -0.03246,0.14605 -0.07655,0.21413 -0.04904,0.0759 -0.113947,0.14041 -0.178153,0.20285 -0.08114,0.0787 -0.159102,0.16757 -0.244827,0.24377 l -0.02081,0.0162"
               style="fill:#000000;fill-opacity:1;fill-rule:nonzero;stroke:none;stroke-width:0.35277778"
               id="path1515"
               inkscape:connector-curvature="0" />
            <path
               d="m 81.827133,306.13386 c -3.53e-4,-0.0406 -0.01623,-0.13546 0.0071,-0.17215 l -0.0011,0.005 c -0.02575,0.0145 -0.02963,0.0441 -0.03669,0.0663 l -0.01376,0.0942"
               style="fill:#000000;fill-opacity:1;fill-rule:nonzero;stroke:none;stroke-width:0.35277778"
               id="path1521"
               inkscape:connector-curvature="0" />
            <path
               d="m 81.792913,306.11623 c 0.04022,-0.024 0.142875,-0.0695 0.164748,-0.1069 l -0.0035,0.004 c 7.05e-4,0.0254 -0.02646,0.0455 -0.0441,0.0639 l -0.08255,0.0656"
               style="fill:#000000;fill-opacity:1;fill-rule:nonzero;stroke:none;stroke-width:0.35277778"
               id="path1523"
               inkscape:connector-curvature="0" />
          </g>
        </g>
        <path
           d="m 82.837488,310.24267 c 0.0042,0.0455 7.06e-4,0.15804 0.0254,0.19473 l -0.0018,-0.005 c -0.02364,-0.01 -0.03034,-0.043 -0.03845,-0.067 -0.0071,-0.0205 -0.02011,-0.0783 -0.02328,-0.10301"
           style="fill:#000000;fill-opacity:1;fill-rule:nonzero;stroke:none;stroke-width:0.35277778"
           id="path1527"
           inkscape:connector-curvature="0" />
        <path
           d="m 81.757283,314.31337 c 0.02963,0.0268 0.110066,0.0794 0.12065,0.12206 l -0.0021,-0.004 c 0.006,-0.0286 -0.0127,-0.0519 -0.02434,-0.0723 l -0.05927,-0.0741"
           style="fill:#000000;fill-opacity:1;fill-rule:nonzero;stroke:none;stroke-width:0.35277778"
           id="path1529"
           inkscape:connector-curvature="0" />
        <path
           d="m 81.793619,314.30067 c -0.0099,0.0452 -0.04692,0.15134 -0.03422,0.19332 v -0.005 c -0.0187,-0.0173 -0.01588,-0.0504 -0.01623,-0.0758 -0.0021,-0.0222 0.0025,-0.0804 0.0063,-0.10513"
           style="fill:#000000;fill-opacity:1;fill-rule:nonzero;stroke:none;stroke-width:0.35277778"
           id="path1531"
           inkscape:connector-curvature="0" />
      </g>
    </g>
  </g>
</svg>
