<?xml version="1.0" encoding="UTF-8" standalone="no"?>
<!-- Created with Inkscape (http://www.inkscape.org/) -->

<svg
   xmlns:dc="http://purl.org/dc/elements/1.1/"
   xmlns:cc="http://creativecommons.org/ns#"
   xmlns:rdf="http://www.w3.org/1999/02/22-rdf-syntax-ns#"
   xmlns:svg="http://www.w3.org/2000/svg"
   xmlns="http://www.w3.org/2000/svg"
   xmlns:sodipodi="http://sodipodi.sourceforge.net/DTD/sodipodi-0.dtd"
   xmlns:inkscape="http://www.inkscape.org/namespaces/inkscape"
   width="300mm"
   height="300mm"
   viewBox="0 0 300 300"
   version="1.1"
   id="svg31716"
   inkscape:version="0.92.4 (5da689c313, 2019-01-14)"
   sodipodi:docname="Zoraptera icon.svg">
  <defs
     id="defs31710" />
  <sodipodi:namedview
     id="base"
     pagecolor="#ffffff"
     bordercolor="#666666"
     borderopacity="1.0"
     inkscape:pageopacity="0.0"
     inkscape:pageshadow="2"
     inkscape:zoom="0.30809653"
     inkscape:cx="437.19242"
     inkscape:cy="449.31138"
     inkscape:document-units="mm"
     inkscape:current-layer="g31467"
     showgrid="false"
     inkscape:window-width="1366"
     inkscape:window-height="715"
     inkscape:window-x="-8"
     inkscape:window-y="-8"
     inkscape:window-maximized="1"
     showguides="false"
     gridtolerance="1"
     guidetolerance="1"
     objecttolerance="1" />
  <metadata
     id="metadata31713">
    <rdf:RDF>
      <cc:Work
         rdf:about="">
        <dc:format>image/svg+xml</dc:format>
        <dc:type
           rdf:resource="http://purl.org/dc/dcmitype/StillImage" />
        <dc:title></dc:title>
      </cc:Work>
    </rdf:RDF>
  </metadata>
  <g
     inkscape:label="Layer 1"
     inkscape:groupmode="layer"
     id="layer1"
     transform="translate(0,3)">
    <g
       transform="matrix(31.915998,-0.89078365,0.89078365,31.915998,-2296.9119,-9690.8031)"
       id="g31467"
       style="fill:#000000">
      <path
         style="fill:#000000;fill-opacity:1;fill-rule:nonzero;stroke:none;stroke-width:36.21323776"
         d="M 375.3125 79.736328 C 374.77182 79.691064 374.22219 79.856922 373.66602 80.318359 C 371.63339 82.016901 374.48715 90.278882 374.2832 92.919922 C 373.87224 96.794475 372.97868 101.24972 374.37891 105.05078 C 377.27413 112.80479 386.33077 113.70956 388.7207 120.33203 C 391.32844 127.6474 387.3038 134.85388 391.18359 142.67578 C 394.80668 149.95074 396.75855 155.49536 405.05469 156.98047 C 408.78078 163.79381 404.43621 170.34441 407.37305 177.29688 C 409.43613 182.44238 412.84463 191.38251 419.43359 191.16602 C 419.02465 195.11295 421.06573 198.26743 421.16797 202.10352 C 421.20388 206.0501 420.14065 209.38745 421.57812 213.29492 C 423.68234 219.30848 429.37028 225.53398 435.44922 227.59766 L 434.42188 228.83398 C 439.82138 235.39539 434.38845 245.85525 438.94727 253.35156 C 442.21149 258.66877 447.20112 266.60467 454.12109 267.36523 C 457.99107 273.66753 455.7115 281.09147 459.73438 287.68164 C 460.55852 289.09522 471.61372 303.72312 472.51953 298.76758 L 474.00781 298.76953 C 475.85515 306.26306 481.02934 325.38468 492.73047 321.36523 C 492.11681 327.92546 499.5761 335.56021 505.54883 336.17578 C 515.61926 337.29508 511.99605 342.62479 513.37109 350.84375 C 514.85983 359.89252 521.19215 367.53786 527.16797 374.16406 C 531.26368 378.64923 537.4134 378.40539 541.29297 383.69336 C 543.78063 386.9999 544.34987 391.52923 545.75977 395.375 C 542.02048 397.81722 537.70077 400.72631 534.25977 403.85742 C 533.69422 404.35609 533.1558 404.84234 532.64062 405.31836 C 532.33034 405.60507 532.04298 405.88207 531.74805 406.16211 C 530.41228 403.51167 528.41517 401.34838 526.36719 401.06641 C 526.98199 395.49003 513.11803 371.4392 506.48633 379.12109 C 508.69541 373.90464 495.3636 367.20323 491.49414 370.82422 C 488.99545 365.93231 464.72507 349.92475 464.62305 361.4082 L 464.64258 361.36133 C 463.73758 367.06542 475.19779 372.11264 483.48047 373.35742 C 484.25081 373.47319 484.99479 373.55604 485.69727 373.60352 C 487.80469 373.74593 489.55051 373.56922 490.5957 373.00586 C 489.6183 378.50182 501.28209 384.2599 505.08008 381.36523 C 507.25317 388.93417 516.88373 399.68779 523.73047 402.47852 C 522.2698 404.87418 522.53834 410.23298 524.31055 413.82812 C 524.01197 414.14543 523.74063 414.43498 523.43164 414.75977 C 516.29789 422.58122 508.54317 430.25741 505.97656 440.50586 C 503.22981 451.69613 507.24963 464.76939 513.76758 474.07617 C 517.09926 478.86033 522.85878 483.02187 528.36133 484.36523 C 531.87439 485.23295 536.43373 483.64543 539.91406 484.76758 C 542.5521 485.59936 544.60607 489.21202 544.39844 492.58594 C 534.9104 495.19637 522.92891 498.48874 515.60938 506.31055 C 511.67763 510.51153 510.8594 517.10418 511.36914 522.82422 C 511.66833 525.97454 511.77769 529.21427 511.96094 532.42773 C 511.99379 533.00382 512.03308 533.57669 512.07227 534.15039 C 510.85401 533.67973 509.62191 533.24139 508.35156 532.85352 C 502.59283 531.15513 495.96557 531.65364 490.02734 530.25 C 484.05359 528.76285 477.93123 527.74982 472.0293 527.56445 C 468.64329 527.4191 462.80322 527.2234 460.74414 526.80273 C 459.80735 525.20825 459.02084 523.08064 458.2832 520.05859 C 455.46034 507.8902 454.18825 494.85421 451.80664 482.57812 C 450.68406 476.9597 448.83782 471.16799 447.70898 465.41211 C 445.46025 453.57175 444.59925 441.62125 439.88867 430.50391 C 438.76481 427.86733 437.60908 425.25579 435.97656 423.08008 C 433.69762 419.9325 430.69101 420.65574 428.74023 417.93359 L 427.15039 417.49609 L 422.15039 409.89648 C 420.41506 407.10797 418.49794 404.50553 416.67969 402.0332 C 413.45682 397.76511 409.50262 392.08151 405.41602 388.74414 C 404.18915 387.74164 402.70237 387.06141 401.20703 386.70312 C 399.86757 383.61594 397.84091 379.43569 396.58594 377.70703 C 394.82134 375.30428 393.1097 371.71167 389.42773 370.85742 C 392.56362 374.0431 394.3136 381.56184 395.625 387.14844 C 395.61785 387.15247 395.61064 387.15609 395.60352 387.16016 C 395.56955 387.17954 395.53713 387.20056 395.50391 387.2207 C 388.91194 386.09398 379.7609 384.61242 375.82617 381.92969 C 376.92708 384.97112 380.98775 386.44764 383.93555 387.91797 C 385.90017 388.93779 390.46138 390.71145 393.97656 391.94922 C 394.14346 392.55486 394.40024 393.2087 394.76953 393.91797 C 398.24937 400.47259 405.56266 404.20453 410.66797 409.30859 C 414.63708 413.28154 418.73856 418.46777 423.36523 421.85547 C 420.39726 424.07689 425.30971 433.5466 426.08789 436.37109 C 428.55108 445.21158 428.51185 454.18833 431.20117 462.48047 C 432.12704 465.37608 433.04848 468.3431 434.13672 471.17383 C 436.27139 476.46221 438.00685 481.60534 439.56641 486.96289 C 442.79014 497.74991 446.88625 508.80013 450.17773 519.80859 C 451.03203 522.61419 452.64782 528.13137 455.24023 531.70508 C 454.81267 535.19005 459.27262 542.79919 460.09766 544.7207 C 462.48868 550.11057 465.99951 554.1407 470.5625 557.7207 C 480.7761 565.65676 491.60246 568.91559 504.34961 570.61328 C 508.80429 571.24441 513.8363 571.41597 517.5625 569.24805 C 518.04205 571.3531 518.59739 573.44408 519.26172 575.51367 C 520.96568 580.7682 523.3566 585.97741 527.19531 590.03516 C 529.6222 592.575 540.96188 596.44835 541.06445 598.9082 L 540.34375 598.56445 C 537.48942 610.44222 536.94505 621.99644 530.09766 632.46094 C 529.29691 633.69669 528.55052 634.99535 527.86914 636.3418 C 527.57547 636.9221 527.3012 637.51642 527.0332 638.11328 C 526.93956 638.09806 526.84786 638.07603 526.75391 638.0625 C 523.95323 637.65929 521.0558 638.01233 520.54297 639.31836 L 511.77539 634.43164 C 508.11774 633.31444 504.60817 632.0127 500.98438 631.02734 C 497.18218 630.04697 476.79006 624.91855 474.51172 624.25781 C 471.68864 623.37083 468.60864 623.33534 465.71484 622.8125 C 462.96499 622.21321 459.81516 621.8186 457.02148 621.29297 C 452.68104 620.67771 449.05382 619.9335 444.67188 620.41797 C 439.09095 620.85139 433.78303 621.1452 433.98828 627.98438 L 427.94336 629.54102 C 422.39936 634.10449 418.27375 641.46107 414.14648 647.17773 C 412.01189 650.11048 409.36292 652.574 407.41211 655.64648 C 401.65399 664.44602 396.14805 673.57222 390.17383 682.18945 C 387.99786 685.41308 385.76004 688.56645 384.34375 692.19141 C 381.3029 699.97709 369.97091 708.7015 372.9375 717.97461 L 368.95312 720.58398 C 366.1704 722.78635 363.73894 725.47408 360.91602 727.75 C 357.9381 730.13889 354.39751 731.26523 351.5332 733.83203 C 347.97221 737.06637 340.78177 742.42573 340.45117 748.0957 C 337.04391 749.71988 332.48325 752.17986 330.59961 753.47852 C 327.81544 755.30589 323.80766 757.26406 323.20703 760.54883 C 323.31228 760.45295 323.39453 760.3546 323.50977 760.25977 C 327.21119 757.21362 335.90537 754.71743 342.19141 752.87109 C 342.23399 752.91088 342.27852 752.94828 342.32227 752.98633 C 342.33093 752.99387 342.33894 753.00229 342.34766 753.00977 C 341.69073 758.64099 340.85527 766.1033 338.24023 769.74023 C 338.3215 769.70801 338.40738 769.68137 338.48633 769.64648 C 341.69151 768.23021 343.0146 764.66279 344.41016 762.11133 C 345.25382 760.54091 346.44946 757.20718 347.4043 754.26562 C 347.65177 754.23235 347.89881 754.18675 348.14453 754.13281 C 348.88734 753.96976 349.61739 753.71445 350.29688 753.38086 C 359.35085 748.89084 365.94091 737.63013 371.08398 729.33789 L 372.41797 727.08984 C 373.90619 724.65802 375.71548 722.04803 376.80078 719.41016 L 380.7832 721.40039 L 384.76562 717.74023 C 387.08674 714.95922 389.43638 711.91229 391.5 708.94531 C 393.80928 705.82661 395.04044 701.98943 397.2168 698.69336 C 399.39296 695.43351 401.7139 691.95229 403.70508 688.55273 L 407.40039 681.78516 C 411.93259 673.78159 415.8331 665.4508 420.47266 657.41406 C 422.43349 654.05157 424.1691 650.79139 425.87305 647.35156 C 427.68996 643.76372 428.8804 639.49291 431.81641 636.38086 L 436.37305 633.4043 L 442.13281 639.19531 C 444.66843 640.89915 447.49219 641.44927 450.2832 642.0957 C 457.16407 643.90763 464.22774 644.88006 471.10547 646.40234 C 477.76872 647.93061 484.79476 648.33888 491.60156 647.66602 C 499.82105 646.833 509.85686 649.72828 517.42188 646.46289 C 520.27793 645.33699 522.08333 645.29777 524.58398 645.33203 C 522.89748 652.58316 523.45302 660.21682 527.82031 666.46484 C 530.34812 670.11448 533.73454 673.17539 537.88672 674.70508 C 535.21324 679.49323 531.82341 683.78853 529.48242 689.16797 C 527.05919 694.60529 524.26719 700.46634 521.22852 705.60938 C 519.75825 708.07395 518.11929 711.35656 517.24609 714.70312 C 516.62648 714.48969 516.00275 714.28346 515.37109 714.10352 C 508.64448 712.18727 501.32625 712.18369 495.33789 714.4043 C 489.93811 716.35375 485.73921 719.69449 481.90234 724.11133 C 477.63223 729.03522 472.59323 733.19611 468.35938 738.01758 C 462.34371 744.9338 455.13979 750.5477 449.41797 757.75391 C 445.21928 763.07418 427.90864 778.2145 434.10156 785.74609 C 424.3601 791.13657 428.23041 811.8563 429.17383 819.5332 C 430.61685 831.00975 431.823 842.3835 432.6543 854.04492 C 433.47673 865.34563 436.6055 876.64209 438.01172 887.79492 C 438.73185 893.26764 439.31443 898.5874 440.43359 903.91016 C 441.17246 907.51374 442.34055 915.48953 445.49219 918.41406 C 439.39591 924.59516 432.73186 930.41877 426.92578 936.83789 C 424.47458 939.59343 413.54059 949.5303 411.6875 956.23047 C 408.73029 957.79108 404.14715 960.41971 402.30273 961.92383 C 399.97574 963.8564 396.63128 965.86839 395.98438 969.54688 C 396.04349 969.48159 396.086 969.41214 396.14844 969.34766 C 399.28007 966.11311 406.49832 963.88713 411.83203 962.19727 C 411.20434 968.87702 410.45645 978.27057 408.04492 982.39258 C 411.02828 981.08025 412.20387 976.91325 413.4707 973.88672 C 414.55239 971.38926 416.39203 965.05516 417.19141 961.44531 L 421.16406 959.75781 L 426.59375 954.76562 C 429.88908 951.07615 432.63954 947.15966 435.75977 942.99219 C 441.53752 935.26336 448.10796 924.4902 453.69922 916.52148 C 457.18858 911.98252 454.39687 900.52295 453.82812 895.77148 C 452.71243 886.50708 450.27748 877.44804 448.4707 868.25 C 446.151 856.3754 445.39169 844.13224 442.20898 832.65234 C 440.43277 826.27954 439.20014 820.08507 438.00977 813.42188 C 436.30527 803.60651 433.95578 801.07313 437.59961 797.34375 L 436.78125 797.00586 C 440.50772 799.07484 448.95074 793.5268 451.30469 792.12109 C 458.2235 788.0649 464.55675 784.59252 471.76367 780.96289 C 476.8657 778.46643 481.86501 775.96057 486.97266 773.42773 C 494.43586 769.58572 501.42183 764.9597 508.62891 760.7168 C 509.62561 760.14555 510.61306 759.72463 511.58984 759.33398 C 507.39455 764.32419 503.80498 770.3551 507.14062 770.70117 L 505.26172 770.77344 C 502.11003 776.71156 489.24937 794.42302 499.24805 798.76758 C 495.77742 798.29585 493.52953 811.91987 492.91406 814.95508 C 492.2025 818.27026 488.6206 829.36172 493.28906 830.86133 L 492.4082 830.72656 C 491.00196 835.83611 489.74862 841.41088 489.44141 846.83984 C 489.25635 850.46061 487.88205 863.53832 493.16797 862.05078 C 489.25713 865.96266 490.41527 880.77121 491.64844 886.45898 C 493.16783 893.66469 493.92601 902.13298 501.06055 906.19531 C 498.81183 909.9268 499.68485 917.2066 501.06055 921.29688 C 504.09991 930.71161 509.45703 938.60354 512.86523 947.69531 C 515.54248 954.86266 518.22069 961.1992 524.99609 965.80273 L 523.43555 965.9668 L 526.07422 975.38086 C 528.35322 978.96304 531.43378 982.0156 534.65625 984.79883 C 536.9181 986.77604 539.39359 988.78582 542.07617 990.27344 C 540.82008 992.86168 539.32365 995.46344 538.27734 998.13867 C 536.28623 1003.314 533.13341 1008.4245 531.4707 1013.6016 C 530.42426 1017.1558 530.8555 1022.9851 535.71094 1019.1797 C 539.69379 1016.0746 541.90162 1010.8219 544.98047 1006.9453 C 548.33671 1002.7066 551.6746 998.21438 554.26172 993.40039 C 555.25391 993.70972 556.18344 994.13351 557.00195 994.76367 L 562.2168 1002.4395 C 564.24882 1004.7851 565.76918 1006.241 568.37695 1007.7617 L 571.85547 1009.6797 L 575.50977 1010.0605 L 575.4668 1010.1113 L 578.80273 1010.1113 L 582.38477 1009.6484 L 585.89648 1007.7285 C 588.53401 1006.2062 590.06305 1004.7506 592.08594 1002.4004 L 597.30078 994.72266 C 598.1158 994.08218 599.04187 993.65291 600.0293 993.3418 C 602.63845 998.17728 605.99783 1002.6921 609.33203 1006.9473 C 611.27605 1009.3678 612.87043 1012.3254 614.76562 1014.9648 C 615.14466 1015.4927 615.53706 1016.0084 615.94531 1016.5039 C 616.76181 1017.4949 617.64691 1018.4063 618.64258 1019.1855 C 621.37365 1021.323 622.70379 1020.4139 623.15234 1018.5781 C 623.20218 1018.3742 623.24078 1018.1595 623.26953 1017.9355 C 623.44205 1016.592 623.24769 1014.94 622.83984 1013.6113 C 621.17657 1008.4305 618.05603 1003.3273 616.06445 998.14844 C 615.00791 995.45106 613.47447 992.83805 612.23047 990.23438 C 614.87609 988.74588 617.3507 986.73532 619.61133 984.76758 C 622.80371 981.97432 625.95512 978.94024 628.23438 975.35156 L 630.88086 965.93555 L 629.32227 965.73633 C 636.12655 961.13647 638.77413 954.80209 641.45312 947.62891 C 644.85695 938.54016 650.215 930.64819 653.29492 921.23047 C 654.56901 917.13867 655.53798 909.85597 653.25977 906.12891 C 660.35365 902.07387 661.11352 893.59686 662.67383 886.39453 C 663.91065 880.70784 665.02981 865.89639 661.16016 861.98438 C 666.42036 863.46851 665.06057 850.39131 664.85547 846.77539 C 664.56735 841.34011 663.33607 835.76134 661.84766 830.66016 L 661.01367 830.78906 C 665.72776 829.29424 662.14574 818.20017 661.375 814.87695 C 660.75893 811.83507 658.5109 798.23132 655.07227 798.68945 C 665.02701 794.34451 652.16674 776.63446 649.05664 770.69727 L 647.17969 770.62891 C 650.25568 770.30267 647.39511 765.08349 643.62109 760.34766 C 643.34057 759.99563 643.05029 759.65308 642.76172 759.30859 C 643.71739 759.69388 644.67856 760.11082 645.63086 760.67188 C 652.83715 764.91329 659.82254 769.54693 667.28516 773.38281 C 672.38861 775.92039 677.42977 778.41265 682.53125 780.91406 C 689.70134 784.52874 696.07782 788.00701 702.95508 792.06445 C 705.30904 793.48363 713.78775 799.01866 717.51367 796.95898 L 716.69141 797.34375 C 720.40992 801.07408 718.01807 803.60905 716.2832 813.42383 C 715.15451 820.08655 713.89057 826.27699 712.11523 832.65234 C 708.92384 844.13148 708.20448 856.37871 705.88477 868.25 C 704.07838 877.44868 701.64419 886.50507 700.52539 895.77148 C 699.95393 900.49812 697.15624 911.86107 700.58594 916.44922 C 706.22406 924.42558 712.7943 935.24871 718.58203 943.00195 C 721.61972 947.16656 724.38056 951.07368 727.70703 954.77148 L 733.17969 959.76172 L 737.12109 961.44336 C 737.9439 965.06778 739.85504 971.42122 740.90234 973.90234 C 742.17277 976.93707 743.34169 981.16736 746.31641 982.41797 C 746.25823 982.31923 746.193 982.24158 746.13672 982.13672 C 743.85124 977.87857 743.11171 968.7265 742.48633 962.19336 C 748.00751 963.9397 755.49495 966.26833 758.41211 969.68359 C 757.80526 965.93634 754.42495 963.90425 752.04297 961.94141 C 750.25572 960.43276 745.63478 957.80188 742.65234 956.24414 C 740.82353 949.54352 729.87664 939.59461 727.42383 936.83789 C 721.57467 930.4068 714.89093 924.57448 708.78516 918.37891 C 711.91309 915.45898 713.0893 907.47472 713.82227 903.87109 C 714.9823 898.5475 715.52746 893.2204 716.24414 887.75586 C 717.69174 876.60185 720.78212 865.30215 721.60156 854.00391 C 722.46402 842.3435 723.66613 830.96684 725.11328 819.49414 C 726.02656 811.81733 729.9262 791.09613 720.1543 785.70703 C 726.38212 778.17404 709.07584 763.04104 704.83594 757.71484 C 699.15007 750.50833 691.94322 744.89811 685.96875 737.97852 C 681.69448 733.15548 676.59316 729.00009 672.35352 724.07227 C 668.51146 719.65245 664.35233 716.3271 658.88086 714.36719 C 652.91201 712.1435 645.62676 712.14599 638.91797 714.0625 C 638.28569 714.24312 637.66146 714.44968 637.04102 714.66406 C 636.96502 714.37437 636.88966 714.0851 636.80273 713.79688 C 635.88781 710.76333 634.40231 707.83843 633.07812 705.59375 C 630.03973 700.45252 627.21625 694.5784 624.82422 689.15234 C 622.44173 683.77882 619.0956 679.47984 616.42188 674.68945 C 620.5315 673.1573 623.92873 670.08887 626.45703 666.44336 C 630.84265 660.20107 631.39508 652.58084 629.70898 645.33984 C 632.21919 645.31652 634.02211 645.38206 636.85938 646.52344 C 644.49676 649.78705 654.53327 646.87483 662.75391 647.68359 C 669.52778 648.33958 676.58459 647.90063 683.24805 646.38672 C 690.16639 644.86569 697.19156 643.88588 704.07227 642.07617 C 706.86484 641.39462 709.64432 640.83391 712.18164 639.18164 L 717.9707 633.38086 L 722.53906 636.35742 C 725.43407 639.47574 726.66576 643.74983 728.44141 647.33398 C 730.14546 650.77527 731.95279 654.03279 733.8418 657.39648 C 738.51243 665.43896 742.42288 673.76459 746.95117 681.76758 L 750.67773 688.54492 C 752.5967 691.94399 754.87605 695.42923 757.08203 698.6875 C 759.28902 701.98196 760.52176 705.82331 762.76953 708.93555 C 764.9047 711.90606 767.25633 714.94389 769.57617 717.74023 L 773.55859 721.39453 L 777.54102 719.40039 C 778.62869 722.03798 780.4052 724.65665 781.88281 727.07812 L 783.25781 729.32031 C 788.40027 737.61521 794.99088 748.87692 804.00781 753.36719 C 804.90415 753.80408 805.88273 754.10385 806.86328 754.24219 C 807.82067 757.19437 809.03908 760.55161 809.88672 762.12891 C 811.32156 764.74279 812.65802 768.42901 816.0918 769.76562 C 816.05238 769.71075 816.00735 769.66796 815.96875 769.61133 C 813.45156 765.91854 812.64557 758.54235 811.99805 752.98047 C 812.0207 752.96088 812.04406 752.94192 812.06641 752.92188 C 812.08944 752.90121 812.11401 752.88248 812.13672 752.86133 C 818.60226 754.75713 827.60022 757.3488 831.08398 760.51953 C 830.44366 757.27058 826.47395 755.30974 823.73633 753.50391 C 821.84952 752.19791 817.30395 749.73695 813.88867 748.11523 C 813.56154 742.42911 806.37818 737.05817 802.77734 733.81641 C 799.91316 731.24048 796.37229 730.11909 793.4375 727.73828 C 790.64567 725.46214 788.15074 722.77991 785.42969 720.57422 L 781.375 717.9707 C 784.38297 708.69985 773.00896 699.97437 769.9668 692.18945 C 768.59096 688.57 766.3441 685.42042 764.17773 682.19727 C 758.20283 673.57551 752.69709 664.45279 746.93945 655.65234 C 744.94842 652.56916 742.3424 650.10617 740.20703 647.17188 C 736.08026 641.44414 731.95281 634.10015 726.4082 629.53711 L 720.39258 627.97852 C 720.49119 621.13086 715.21896 620.84394 709.63672 620.4082 C 705.29298 619.92583 701.62979 620.62275 697.25 621.23633 C 694.49773 621.67531 691.30628 622.12771 688.62695 622.75781 C 685.73209 623.32149 682.65211 623.28712 679.83008 624.21094 C 677.55017 624.87818 657.16168 630.00906 653.35938 630.98438 C 649.77618 631.92943 646.18194 633.26163 642.56641 634.38867 L 633.76953 639.28125 C 633.23574 637.92743 630.13472 637.59699 627.23828 638.07422 C 626.9721 637.48333 626.69941 636.895 626.4082 636.32031 C 625.72587 634.97376 624.97836 633.67563 624.17773 632.43945 C 617.3715 621.97334 616.78628 610.42765 613.96289 598.54297 L 613.25 598.92578 C 613.39459 596.45903 624.65585 592.58225 627.11914 590.05078 C 630.95822 585.99001 633.39159 580.78076 635.05469 575.53125 C 635.72732 573.45432 636.28709 571.3564 636.77148 569.24414 C 640.48898 571.41458 645.5115 571.2441 649.99414 570.61523 C 662.74125 568.90738 673.53218 565.64744 683.74609 557.7207 C 688.30941 554.13226 691.8905 550.12135 694.21094 544.7207 C 695.07646 542.77745 699.60896 535.05428 699.07422 531.61523 C 701.68015 528.04256 703.28998 522.51552 704.11914 519.70508 C 707.41059 508.69638 711.549 497.65616 714.73047 486.85938 C 716.29149 481.49924 718.066 476.35512 720.12891 471.07031 C 721.24776 468.25042 722.17462 465.27974 723.0957 462.38086 C 725.77482 454.08737 725.77462 445.10462 728.23828 436.27148 C 728.98853 433.45107 733.90386 423.97225 730.98438 421.76172 C 735.65955 418.37408 739.72098 413.19475 743.68359 409.23047 C 748.82546 404.12169 756.09927 400.39357 759.50781 393.83984 C 759.85192 393.18407 760.09405 392.57682 760.26367 392.00977 C 763.80249 390.77738 768.4102 388.99003 770.40625 387.96289 C 773.31646 386.48684 777.40937 385.00692 778.49023 381.9375 C 774.57272 384.60452 765.47918 386.0652 758.88086 387.19727 C 758.83316 387.16677 758.78368 387.13824 758.73438 387.10938 C 760.04078 381.53854 761.77992 374.06094 764.87109 370.87305 C 761.21543 371.70476 759.47736 375.32195 757.71289 377.72852 C 756.50659 379.42771 754.51793 383.5269 753.17969 386.60352 C 751.65689 386.9559 750.13975 387.64637 748.89844 388.66797 C 744.80614 392.00424 740.89556 397.6901 737.67188 401.95703 C 735.82365 404.42304 733.93462 407.02369 732.19922 409.8125 L 727.20117 417.41211 L 725.61133 417.93945 C 723.66006 420.64978 720.65115 419.92488 718.33203 423.08008 C 716.70009 425.25032 715.57266 427.86502 714.45117 430.50391 C 709.7503 441.62075 708.84762 453.56892 706.59961 465.41406 C 705.51087 471.17268 703.63109 476.97043 702.54297 482.57812 C 700.15127 494.85464 698.88973 507.89082 696.02539 520.05859 C 695.31388 523.06962 694.53811 525.19337 693.60938 526.78711 L 693.58008 526.75977 C 691.58794 527.27049 685.72594 527.4152 682.31836 527.55859 C 676.37876 527.73644 670.29838 528.75063 664.2832 530.23438 C 658.34402 531.65564 651.75518 531.13973 645.99609 532.8457 C 644.71522 533.2341 643.46726 533.67964 642.23242 534.1582 C 642.49809 530.38594 642.61261 526.54848 642.97852 522.83984 C 643.55399 517.11728 642.6819 510.52591 638.74023 506.32617 C 631.38849 498.50822 619.43857 495.20884 609.91211 492.60156 C 609.72771 489.23858 611.83118 485.58309 614.39844 484.78711 C 617.9113 483.61464 622.47293 485.2976 625.95117 484.35547 C 631.49671 483.01762 637.24583 478.84937 640.58203 474.07227 C 647.10077 464.765 651.12383 451.68734 648.33203 440.50195 C 645.79756 430.25343 638.01125 422.57068 630.87695 414.75391 C 630.57703 414.43558 630.30849 414.15119 630.01758 413.83984 C 631.80964 410.24363 632.09441 404.86936 630.63086 402.47266 C 637.47766 399.68605 647.10795 388.92787 649.24414 381.35938 C 653.04209 384.25934 664.70867 378.50174 663.73047 373 C 668.90173 375.76843 690.90957 369.19898 689.72266 361.38281 C 689.58126 349.95795 665.35208 365.94354 662.85547 370.82617 C 658.94444 367.20504 645.61724 373.9024 647.86328 379.11523 C 641.23155 371.44137 627.36462 395.48351 627.98047 401.06055 C 625.90889 401.31286 623.90389 403.48483 622.56836 406.15234 C 621.7833 405.40461 620.98846 404.6541 620.08594 403.85352 C 616.64696 400.72046 612.33202 397.81513 608.59766 395.37305 C 608.59787 395.37248 608.59744 395.37166 608.59766 395.37109 C 610.03042 391.51597 610.58642 386.96657 613.13867 383.64453 C 617.01125 378.3575 623.1695 378.62036 627.22461 374.125 C 633.23062 367.49878 639.5765 359.86296 641.02344 350.80469 C 642.3574 342.58617 638.80447 337.26479 648.875 336.13867 C 654.84813 335.52288 662.20416 327.87921 661.69531 321.32617 C 673.35401 325.34554 678.54005 306.23139 680.41797 298.73047 L 681.90625 298.73047 C 682.77483 303.69564 693.87172 289.06346 694.68945 287.65234 C 698.70297 281.06121 696.42432 273.6361 700.26367 267.33594 C 707.18284 266.57543 712.21209 258.64148 715.50781 253.32227 C 720.00795 245.82663 714.60487 235.36763 720.00391 228.80664 L 718.98047 227.61523 C 725.02922 225.55229 730.71597 219.32171 732.85156 213.31055 C 734.19102 209.39801 733.19282 206.06871 733.26367 202.11914 C 733.33514 198.27821 735.41004 195.1298 734.99805 191.18164 C 741.55081 191.39834 744.91703 182.45562 747.09375 177.3125 C 749.95637 170.35994 745.54312 163.80215 749.3418 156.99609 C 757.59657 155.51141 759.58932 149.97546 763.21289 142.69141 C 767.04722 134.87029 763.06837 127.66371 765.67578 120.34766 C 768.06644 113.71731 777.12085 112.81301 780.01562 105.06641 C 781.38234 101.26538 780.53302 96.811332 780.12305 92.935547 C 779.91646 90.291479 782.72954 82.038987 780.73828 80.332031 C 777.77098 77.867629 774.9369 83.80184 773.05859 85.363281 C 770.09114 87.824314 767.05397 89.165895 764.80664 92.427734 C 760.32031 99.163651 758.75918 108.28198 764.18945 114.95117 C 760.23979 120.92364 754.73745 123.75759 750.21094 129.18359 C 746.44298 133.67336 740.72717 144.8301 742.60547 150.83789 C 744.07574 155.50499 746.76042 154.53775 743.86523 159.24219 C 741.87402 162.42445 738.72136 163.29716 735.85742 165.57422 C 730.57162 169.92044 724.88563 178.63929 727.70898 185.63477 L 730.93164 189.54102 C 729.77278 196.60659 719.56224 199.06414 716.55469 205.36523 C 713.98833 210.69186 710.95217 216.48813 712.83008 222.56836 C 713.55845 224.96246 716.79129 226.65942 715.76562 229.27148 C 715.26275 230.58478 713.72683 231.76648 711.86133 232.87695 C 711.23949 233.24711 710.58095 233.60853 709.91211 233.96484 C 707.23674 235.39008 704.39428 236.72221 703.05469 238.09961 C 698.16914 242.98877 687.19491 261.96679 696.75195 266.27539 C 694.14472 272.29127 685.8495 273.69372 681.79492 279.20312 C 679.33088 282.61588 677.37863 286.15908 676.86719 290.32617 C 676.21026 295.07678 678.49887 296.62995 674.61914 300.14258 C 668.78917 305.47217 661.76614 306.73102 658.21484 314.70117 L 656.98438 320.05859 L 650.89648 321.72656 C 647.42615 323.21172 644.1308 325.53584 642.64258 329.00586 C 640.96943 332.77078 641.98689 334.46958 638.4043 336.86328 C 635.29459 338.94198 631.78477 338.4368 628.56055 339.61328 C 623.09404 341.74568 618.05384 346.20818 614.25586 350.66016 C 609.72946 355.91715 607.92177 361.37476 605.67383 367.64258 C 603.75146 373.0972 603.31145 381.14465 599.59766 385.73047 C 599.39823 386.49603 599.12388 387.24657 598.81445 387.98828 C 598.68617 388.29578 598.54906 388.60074 598.41406 388.90625 C 596.19598 387.54608 593.96016 386.18942 591.98242 385.01953 C 586.79916 381.94094 582.12941 380.51556 577.17188 380.5332 C 572.17504 380.53987 567.57627 381.94631 562.36133 385.02539 C 560.41084 386.17974 558.20009 387.51939 556.00977 388.85938 C 555.87953 388.56348 555.74692 388.26848 555.62305 387.9707 C 555.33709 387.28329 555.08365 386.58815 554.88867 385.88086 C 551.02666 381.32434 550.62943 373.15046 548.67383 367.63281 C 546.42624 361.36974 544.61942 355.90262 540.0918 350.64844 C 536.25283 346.19232 531.25453 341.7456 525.75195 339.60547 C 522.55945 338.41493 519.01774 338.9487 515.9375 336.84961 C 515.49352 336.55114 515.11993 336.26295 514.80273 335.98047 C 514.64413 335.83923 514.49924 335.69981 514.36719 335.56055 C 514.23513 335.42129 514.11676 335.2812 514.00781 335.14258 C 513.78993 334.86534 513.6148 334.58937 513.46875 334.30664 C 512.73852 332.89298 512.7348 331.34282 511.74023 328.98633 C 510.17992 325.50481 506.92488 323.19332 503.44531 321.70898 L 497.35938 320.04297 L 496.08594 314.68359 C 492.57515 306.71739 485.512 305.45389 479.68164 300.125 C 475.81224 296.61136 478.08977 295.0498 477.47461 290.31055 C 476.96005 286.14795 475.01216 282.59322 472.54883 279.19727 C 468.4948 273.69687 460.19895 272.27509 457.5918 266.26953 C 467.11835 261.95948 456.14466 242.98494 451.25781 238.0957 C 448.53729 235.34675 439.96113 232.77249 438.58398 229.26172 C 437.55763 226.65864 440.75922 224.95181 441.51953 222.56445 C 443.36688 216.47683 440.35464 210.68199 437.79297 205.36328 C 434.78495 199.06108 424.57701 196.60634 423.41797 189.53906 L 426.59961 185.62305 C 429.46373 178.63785 423.77524 169.90624 418.48828 165.56055 C 415.62374 163.27436 412.40136 162.41029 410.48242 159.22852 C 407.5876 154.51667 410.27708 155.49188 411.71484 150.82812 C 413.63417 144.81092 407.91789 133.66454 404.15039 129.17383 C 399.58263 123.73606 394.07963 120.91911 390.17188 114.94141 C 395.60199 108.28297 394.04084 99.151401 389.55469 92.416016 C 387.30649 89.158926 384.34121 87.817885 381.30273 85.355469 C 379.80209 84.092807 377.65544 79.932473 375.3125 79.736328 z M 554.88867 385.88086 C 554.9809 385.98967 555.06585 386.10635 555.16211 386.21094 L 554.54102 383.0293 L 554.625 384.69727 C 554.66793 384.97825 554.7241 385.25698 554.79102 385.5332 C 554.81931 385.65001 554.85668 385.7648 554.88867 385.88086 z M 599.59766 385.73047 C 599.68504 385.39503 599.76204 385.05725 599.81445 384.71484 L 599.80859 383.0293 L 599.19727 386.2207 C 599.33878 386.06578 599.46477 385.89456 599.59766 385.73047 z M 764.87109 370.87305 C 764.95966 370.8529 765.04392 370.82541 765.13477 370.80859 L 765.44727 370.31641 C 765.24785 370.47755 765.06016 370.67806 764.87109 370.87305 z M 778.49023 381.9375 C 778.74574 381.76356 779.00027 381.58872 779.20898 381.4043 L 778.58789 381.66211 C 778.56106 381.7569 778.52259 381.84561 778.49023 381.9375 z M 831.08398 760.51953 C 831.09665 760.58379 831.11694 760.64566 831.12695 760.71094 L 831.64453 761.05859 C 831.48525 760.87643 831.28018 760.6981 831.08398 760.51953 z M 816.0918 769.76562 C 816.28217 770.03066 816.47748 770.28853 816.6875 770.50977 L 816.47656 769.91211 C 816.34319 769.86917 816.21926 769.81524 816.0918 769.76562 z M 758.41211 969.68359 C 758.42258 969.74825 758.43847 969.80931 758.44727 969.875 L 758.85547 970.22656 C 758.72862 970.04096 758.56546 969.86313 758.41211 969.68359 z M 746.31641 982.41797 C 746.46073 982.66292 746.60332 982.91232 746.75977 983.11719 L 746.54883 982.51953 C 746.46815 982.49088 746.39455 982.45082 746.31641 982.41797 z M 408.04492 982.39258 C 407.95793 982.43085 407.87528 982.47451 407.78516 982.50781 L 407.58398 983.11719 C 407.74667 982.90471 407.89543 982.64811 408.04492 982.39258 z M 395.98438 969.54688 C 395.78165 969.77076 395.58115 969.99502 395.41992 970.22852 L 395.92773 969.85156 C 395.94144 969.74684 395.96642 969.64899 395.98438 969.54688 z M 338.24023 769.74023 C 338.10155 769.79523 337.96596 769.85351 337.82031 769.90039 L 337.61914 770.50977 C 337.83843 770.28095 338.04213 770.01576 338.24023 769.74023 z M 323.20703 760.54883 C 323.01981 760.71939 322.82157 760.88868 322.66797 761.0625 L 323.17578 760.6875 C 323.18294 760.64013 323.19847 760.59565 323.20703 760.54883 z M 375.82617 381.92969 C 375.7886 381.82589 375.74533 381.7247 375.71484 381.61719 L 375.10352 381.39258 C 375.31336 381.57847 375.56891 381.75429 375.82617 381.92969 z M 389.42773 370.85742 C 389.24205 370.66879 389.05694 370.47498 388.86133 370.31836 L 389.16406 370.79297 C 389.25498 370.81029 389.33913 370.83686 389.42773 370.85742 z "
         transform="matrix(0.00828354,2.3119566e-4,-2.3119566e-4,0.00828354,63.446095,305.31146)"
         id="path9383" />
    </g>
  </g>
</svg>
