<?xml version="1.0" encoding="UTF-8" standalone="no"?>
<!-- Created with Inkscape (http://www.inkscape.org/) -->

<svg
   xmlns:dc="http://purl.org/dc/elements/1.1/"
   xmlns:cc="http://creativecommons.org/ns#"
   xmlns:rdf="http://www.w3.org/1999/02/22-rdf-syntax-ns#"
   xmlns:svg="http://www.w3.org/2000/svg"
   xmlns="http://www.w3.org/2000/svg"
   xmlns:sodipodi="http://sodipodi.sourceforge.net/DTD/sodipodi-0.dtd"
   xmlns:inkscape="http://www.inkscape.org/namespaces/inkscape"
   width="300mm"
   height="300mm"
   viewBox="0 0 300 300"
   version="1.1"
   id="svg31716"
   inkscape:version="0.92.4 (5da689c313, 2019-01-14)"
   sodipodi:docname="Hymenoptera icon.svg">
  <defs
     id="defs31710" />
  <sodipodi:namedview
     id="base"
     pagecolor="#ffffff"
     bordercolor="#666666"
     borderopacity="1.0"
     inkscape:pageopacity="0.0"
     inkscape:pageshadow="2"
     inkscape:zoom="0.24748737"
     inkscape:cx="-270.77151"
     inkscape:cy="528.42243"
     inkscape:document-units="mm"
     inkscape:current-layer="g32621"
     showgrid="false"
     inkscape:window-width="1366"
     inkscape:window-height="715"
     inkscape:window-x="-8"
     inkscape:window-y="-8"
     inkscape:window-maximized="1" />
  <metadata
     id="metadata31713">
    <rdf:RDF>
      <cc:Work
         rdf:about="">
        <dc:format>image/svg+xml</dc:format>
        <dc:type
           rdf:resource="http://purl.org/dc/dcmitype/StillImage" />
        <dc:title></dc:title>
      </cc:Work>
    </rdf:RDF>
  </metadata>
  <g
     inkscape:label="Layer 1"
     inkscape:groupmode="layer"
     id="layer1"
     transform="translate(0,3)">
    <g
       transform="matrix(31.915998,-0.89078365,0.89078365,31.915998,-2296.9119,-9690.8031)"
       id="g31467"
       style="fill:#000000">
      <g
         id="g32598"
         transform="matrix(1.1269134,0,0,1.1269134,-7.9367159,-39.150411)">
        <g
           id="g32621"
           transform="translate(0.05774424,0.0610601)">
          <path
             style="fill:#000000;fill-opacity:1;fill-rule:nonzero;stroke:none;stroke-width:44.90476608"
             d="M 776.15039 31.849609 C 770.48127 31.921109 764.7558 32.410744 758.94141 33.511719 C 738.15032 37.275396 720.09873 47.112405 703.03516 55.875 C 694.50319 60.235216 686.5104 67.096179 678.06836 71.724609 C 667.24583 77.658827 650.94568 87.351792 641.74023 94.941406 C 636.62079 99.029523 639.89898 93.497271 630.82617 98.171875 C 624.49482 101.5864 619.37713 107.0626 613.44922 111.06445 C 609.35579 113.89066 601.65756 120.96884 595.02734 127.41797 C 594.35802 127.07868 593.69117 126.73682 593.00391 126.41211 C 584.51023 122.27613 575.20234 119.25584 566.75977 118.84961 C 558.4962 119.1412 549.33003 122.32522 540.91602 126.41016 C 540.20443 126.74494 539.5147 127.09752 538.82227 127.44922 C 532.19451 120.99255 524.48706 113.89798 520.35742 111.06445 C 514.52016 107.06447 509.35492 101.59059 503.02344 98.175781 C 493.95234 93.504221 497.27724 99.030153 492.11328 94.943359 C 482.90772 87.35472 466.56192 77.655272 455.74023 71.726562 C 447.29804 67.10275 439.30502 60.22402 430.86328 55.875 C 413.75454 47.119307 395.7029 37.274404 374.95703 33.513672 C 363.23548 31.310434 352.00926 31.623631 340.82812 32.751953 C 336.15808 33.24961 304.58933 33.778277 309.93359 43.886719 C 312.31298 48.268898 320.57668 46.812555 324.21484 47.119141 C 334.40475 47.242865 344.59804 45.870898 354.56836 46.544922 C 376.61664 48.027323 395.70012 56.518503 413.16797 65.404297 C 438.71884 78.337585 465.97563 91.000765 488.92188 106.58203 C 488.29239 114.39484 494.26629 114.71782 500.41797 117.53906 C 505.85145 120.01303 509.89361 124.28057 515.14648 127.50781 C 519.32385 130.00655 523.36719 132.75541 527.3457 135.63281 L 521.1582 142.18359 C 517.38385 144.34318 511.05494 142.86083 506.56445 144.91797 C 502.74704 146.67063 498.88545 149.28082 495.5625 151.83594 C 487.7944 157.67265 483.25796 164.90348 480.6543 173.92773 C 479.57719 177.64455 477.50503 181.96111 477.91602 185.96289 C 478.37695 190.77954 480.12219 192.43117 479.08789 197.7793 C 477.60558 206.08524 475.9464 218.12147 478.5957 226.42773 C 480.75132 233.25268 485.78062 241.0035 493.50391 241.74023 C 498.80235 242.21815 519.86424 237.77986 519.45898 245.68164 C 509.80464 248.03255 504.68663 248.29904 496.10938 253.91211 C 482.27862 262.84704 471.77072 283.09998 464.90039 297.42383 C 462.24935 302.76075 458.63212 309.39533 457.29297 315.75391 C 449.67665 311.97032 441.79933 308.75682 434.50586 304.10742 C 427.2312 299.47959 420.13588 295.03855 412.68164 290.63477 C 407.11287 287.40273 401.41012 283.31712 396.60547 279.13867 C 393.14903 276.2286 390.725 272.28299 386.86328 269.66992 L 381.20312 266.9707 L 375.23047 268.22656 L 373.16406 255.01953 C 372.0874 250.70982 370.96399 246.49625 368.58398 242.67188 C 366.24938 238.91424 363.64485 236.29307 359.60352 233.9707 L 353.81055 231.27539 L 346.62695 230.52344 L 346.62695 230.55469 C 346.14989 230.58512 345.62415 230.74013 345.07617 230.97852 C 341.46811 229.35059 337.60041 227.77373 334.1875 225.32617 C 325.47628 219.12089 317.34789 205.16404 313.2168 206.78125 C 310.43326 207.94728 310.88392 208.2059 307.91797 206.24805 L 304.28125 200.99023 C 301.27214 196.46239 292.20054 174.45045 286.58789 187.42773 C 282.63638 180.81753 282.3232 167.5353 275.31641 167.2207 L 270.7832 171.40234 C 262.16752 164.32476 251.72312 136.18251 236.73633 137.43945 C 235.82423 134.01252 234.74698 130.42174 233.91797 128.63477 C 232.29163 125.20625 230.91814 120.50253 226.6543 118.57031 C 229.68789 123.11906 230.20513 132.51472 230.57617 139.58594 C 230.41674 139.68288 230.25804 139.77496 230.09766 139.87891 C 228.06846 141.21746 226.64551 142.59438 225.70312 143.97852 C 217.68579 145.00536 207.58804 146.257 202.38672 144.61719 C 204.79059 147.81665 210.2417 148.18487 214.21484 148.88086 C 216.34003 149.29283 220.44561 149.63412 224.375 149.83984 C 225.29037 154.59373 230.61646 158.8607 235.84766 161.20898 C 245.1432 165.34372 255.11113 173.64981 264.76562 176.65625 L 257.17773 177.41211 C 257.31775 184.37358 275.31835 189.5855 280.4375 191.69141 C 270.15327 192.93074 282.09807 202.1603 285.87109 204.08203 C 291.52939 206.82181 298.31137 209.38076 304.2832 211.8125 C 295.21203 221.37099 307.7395 224.12385 315.77734 227.25977 C 323.31131 230.26747 330.01764 235.78315 337.51758 238.58789 C 337.22186 239.19853 337.00855 239.77986 336.92773 240.29297 C 335.84921 246.44498 340.51954 256.90954 347.25586 263.95898 C 352.465 269.34781 359.28999 281.19527 367.82227 282.54883 C 364.40953 288.97414 377.61197 296.60427 382.32617 301.58789 C 388.119 307.68553 394.54003 312.63572 400.55664 318.5625 C 413.30969 331.40675 428.66752 340.8733 441.64453 352.95898 C 443.64574 354.82377 445.86097 356.57673 448.15234 357.83203 C 445.41349 367.29951 443.91646 380.26042 437.06445 393.89258 C 435.22459 397.55414 431.20671 404.5938 425.82031 413.75781 C 419.34045 411.05524 412.69024 408.90185 406.03711 407.58789 C 401.9977 406.74833 393.23819 405.83618 394.13477 412.61328 C 388.52359 412.63385 383.71808 421.4617 380.43945 425.18555 C 376.03841 430.30113 370.9194 434.38858 365.98047 439.05664 C 355.56254 449.2513 345.45911 458.67959 335.89453 469.68164 C 328.17064 478.67196 311.06097 489.26011 312.22852 502.77734 L 313.22656 508.30078 L 305.00781 513.94336 C 299.30601 517.97971 293.91562 522.56501 288.16797 526.42578 C 282.19559 530.56491 277.30315 536.4436 271.55469 540.79688 C 264.45992 546.05566 257.31797 551.1664 256.68945 560.33008 C 248.73938 560.14384 233.69843 571.29656 236.61719 579.9082 C 233.42884 580.94949 228.35545 582.9963 225.48242 584.70898 C 220.36239 587.89924 222.47362 591.79846 219.06055 595.26758 C 216.3661 597.9684 210.70727 597.5961 207.33984 598.99609 C 201.45833 601.41855 197.1017 607.6072 201.41211 611.52734 C 197.74916 614.4405 185.56602 623.07324 182.22266 630.42188 C 178.90388 631.39629 175.46967 632.54463 173.74219 633.43164 C 170.3774 635.03442 165.74608 636.5391 163.88477 640.83594 C 167.84383 638.07232 175.53581 637.19838 182.1543 636.65234 C 182.86005 637.75304 184.06196 638.73488 185.875 639.54883 C 187.02521 640.07962 188.12082 640.317 189.16406 640.33008 C 190.42333 648.47777 192.02591 659.16743 190.42773 664.53711 C 193.67687 662.12476 193.8301 656.65807 194.48828 652.56445 C 194.92824 649.59279 195.27368 642.51541 195.24219 637.75781 C 197.64565 635.69519 199.64363 632.77753 201.27734 630.43945 C 204.99863 624.97024 209.60877 617.86187 209.62305 617.83984 C 209.72259 624.73262 217.79502 622.44138 221.07227 617.44727 C 223.49675 613.89691 223.40609 606.94738 227.35938 604.70117 C 233.60163 612.96158 239.30494 593.23904 240.87695 589.43359 C 244.4252 593.2934 251.33924 586.14944 253.76367 583.2793 C 256.50228 579.86982 256.05395 574.072 259.64648 571.42773 C 263.23859 568.86512 268.31235 568.87445 272.21875 565.58203 C 280.43676 558.79542 284.97108 548.60738 292.38086 540.97266 C 297.23021 535.98059 302.66486 531.44946 307.28906 526.11133 C 310.70223 522.20688 318.65064 515.4686 319.99805 510.66406 C 330.19136 512.99158 337.10564 507.83275 343.57227 500.56445 C 353.31692 489.79 361.13001 477.43817 369.34766 465.58398 C 373.29836 459.88238 377.20612 454.12677 381.69531 448.5625 C 384.6137 444.91673 386.59126 434.32736 391.71094 433.02539 L 399.88281 436.70312 C 403.29562 438.04992 407.15704 437.72299 410.66016 438.45508 C 410.79075 438.47861 410.92375 438.51206 411.05469 438.53711 C 389.20706 474.85385 358.65349 524.65425 336.61328 561.16211 C 301.67751 619.31446 258.3889 692.41888 238.81055 730.54297 C 219.27692 768.62227 195.61086 828.3026 189.41406 858.20898 C 183.30669 888.02446 184.29564 916.85247 189.41406 934.32031 C 194.57867 951.83449 199.56352 971.90661 221.29688 965.21484 C 229.19971 962.8312 236.92394 959.16047 242.62695 953.36914 C 253.31441 942.59559 268.67191 895.30765 304.73047 805.67773 C 340.69915 716.13741 347.97224 695.52675 352.01367 689.41992 C 356.10025 683.22476 358.25679 680.44369 381.9668 646.76172 C 405.58673 613.17204 415.91407 605.98625 426.15234 581.24414 C 436.48109 556.54576 437.46763 523.49661 448.7832 493.1875 C 453.17333 481.45727 457.23549 470.88478 460.99219 460.77148 C 461.49077 461.09756 461.98874 461.42381 462.48047 461.75781 C 468.85762 466.02842 474.73932 471.68818 480.66602 476.5332 C 486.59425 481.29248 492.61217 484.34904 499.21289 487.85156 C 506.62205 491.71244 512.54937 494.18491 520.8125 491.4375 C 521.48595 491.21753 522.08158 490.95777 522.61914 490.66797 C 524.22512 493.14689 524.43698 495.89289 522.01953 498.87305 C 516.63086 505.61334 494.89769 501.16429 482.00977 516.25195 C 470.82884 529.40779 463.6889 545.34926 459.87109 561.51562 C 459.18696 564.31349 458.62904 570.07386 458.26367 575.30859 C 450.40265 581.82567 442.41304 588.67986 435.08789 596.00586 C 427.99196 603.31893 415.24112 610.50863 412.1875 620.79297 C 410.57142 626.40221 413.80464 629.99812 413.45312 635.92578 C 412.96139 643.65312 409.32165 651.10239 407.83984 658.64648 C 405.86503 668.75514 405.50633 679.48249 403.5293 689.31641 C 399.57866 709.2535 397.33228 730.17846 392.21289 749.62305 C 389.07017 761.56005 379.99864 780.51651 381.70508 789.45312 C 382.29379 792.51125 387.09467 792.86833 390.41797 792.42188 C 389.47509 798.12115 387.85791 800.85859 386.42188 805.26562 C 384.80472 810.15387 384.35542 815.86814 383.68164 821.11914 C 382.42167 831.49354 381.65984 842.22348 380.08984 852.50586 C 376.40752 876.88949 372.99574 905.63008 375.59961 930.14844 L 376.18359 934.49805 C 376.86158 938.80528 377.75092 943.38018 377.48828 948.10547 C 377.03846 958.79735 369.62836 973.20634 373.17578 975.7207 C 375.60007 977.47601 375.60177 977.01374 375.60156 980.56445 L 373.17773 986.41406 C 371.02342 991.35812 357.32513 1010.8845 371.33594 1008.5957 C 367.96742 1015.4646 356.87812 1022.92 360.4707 1028.9824 L 366.35352 1030.6543 C 365.15188 1040.5816 350.47235 1060.8587 354.20898 1073.5566 C 352.01076 1075.3462 349.95457 1077.1341 348.91602 1078.3145 C 346.4023 1081.257 342.60005 1084.3459 342.63281 1089.0508 C 345.14335 1085.1809 351.50214 1081.6235 357.22852 1078.7012 C 358.43204 1079.9091 359.97183 1080.9698 361.90625 1081.8477 C 364.45758 1082.9937 366.62245 1083.4341 368.45117 1083.3398 C 372.07645 1089.5419 375.75617 1096.4132 376.24609 1100.9316 C 378.24971 1097.4282 376.32502 1092.3061 375.36719 1088.3359 C 375.00139 1086.8017 374.14141 1084.1585 373.17383 1081.4023 C 376.76652 1078.0928 377.49935 1071.1825 376.63477 1065.4551 C 375.15701 1055.402 376.71717 1042.5999 374.0293 1032.7656 L 378.88086 1038.8203 C 384.62973 1034.9595 379.32744 1016.8612 378.25195 1011.4727 C 384.85382 1019.5054 386.15586 1004.4232 385.75195 1000.2852 C 385.03216 993.99283 383.55148 986.9454 382.33984 980.48047 C 395.31763 982.89352 390.78097 971.00726 389.07617 962.51953 C 387.36916 953.80604 388.83959 944.33152 386.38086 935.98047 L 387.18555 938.44922 C 396.52543 940.41964 391.58603 916.75959 391.18164 911.77539 C 389.51878 893.14045 391.499 872.62042 392.70703 853.80469 C 393.96718 833.10331 397.33399 812.08614 406.44922 793.22656 L 415.20508 789.55469 C 418.25884 786.17723 418.93183 780.93469 419.91992 776.75781 C 422.65932 765.09054 421.03923 753.63146 422.20898 741.73047 C 423.19958 731.4044 423.69065 719.5489 424.76953 708.68164 C 425.94079 697.37104 427.77839 686.0483 426.79102 675.0918 C 425.88299 664.49222 424.41235 652.01076 426.92969 641.50195 C 430.46967 641.72258 435.08985 640.47123 439.74805 638.31836 C 438.95375 649.13935 439.31097 659.94088 439.30859 668.70117 C 439.3096 679.11928 431.76535 708.40196 444.65234 714.19141 L 446.80664 719.80273 C 448.05789 730.22132 444.7383 741.70844 445.99414 752.58398 C 447.11431 762.05937 446.3076 772.24866 448.23828 781.9082 C 449.04778 785.85805 449.76556 791.02023 451.83203 794.43164 C 453.67341 797.57725 456.41357 798.75318 458.07422 801.80859 C 461.36238 808.04824 458.48531 816.52496 459.16211 823.22656 C 460.10487 832.92593 461.54245 841.6441 463.9668 850.66406 C 465.85286 857.84752 467.20006 865.1204 469.66992 872.26172 C 472.76743 881.02891 477.75132 883.70565 482.33203 890.58398 C 484.48743 893.72083 483.49699 896.27986 483.90039 900.00977 C 484.5293 906.11684 487.85268 912.75777 491.2207 918.10547 C 495.66528 924.92231 500.51568 931.71192 507.07227 936.5625 C 513.35868 941.33083 519.06242 946.17744 522.6543 953.35547 C 526.60468 960.90032 528.76137 969.61152 535.13672 975.71875 C 540.74932 980.92082 546.27267 986.35736 552.33594 991.03125 C 557.67954 995.20826 563.29367 1003.3912 566.92969 1003.4258 L 566.92188 1003.4297 C 571.05224 1003.3416 576.2185 995.21298 581.69727 991.0332 C 587.71507 986.36769 593.19119 980.92135 598.75977 975.71875 C 605.27027 969.65728 607.38323 960.90921 611.33398 953.35742 C 614.97169 946.17488 620.62902 941.3226 626.91602 936.5625 C 633.42702 931.71316 638.27666 924.92606 642.76758 918.10742 C 646.17987 912.75822 649.46748 906.12172 650.08594 900.00977 C 650.48397 896.2847 649.54759 893.72715 651.6582 890.58008 C 656.28263 883.71963 661.22203 881.01019 664.32031 872.25781 C 666.79018 865.1174 668.09212 857.84268 670.02344 850.66016 C 672.40143 841.54424 673.8839 832.91843 674.7832 823.2207 C 675.45762 816.53036 672.57891 808.04461 675.90234 801.80273 C 677.51906 798.75108 680.26018 797.57245 682.14648 794.43164 C 684.21189 790.93212 684.97598 785.863 685.73633 781.91016 C 687.61499 772.25584 686.85503 762.05945 687.9375 752.58789 C 689.27852 741.72013 685.91353 730.23405 687.12305 719.80664 L 689.32422 714.19531 C 702.21172 708.40209 694.67312 679.12578 694.66797 668.70508 C 694.66793 659.97969 695.02908 649.21662 694.25391 638.42773 C 698.85709 640.533 703.40936 641.74458 706.90625 641.51172 C 709.37622 652.02008 707.98324 664.50477 707.04102 675.10156 C 706.14422 686.05897 707.93655 697.37819 709.10938 708.69141 C 710.23436 719.55836 710.67433 731.4152 711.66992 741.74023 C 712.83191 753.64009 711.17279 765.08802 713.91211 776.76562 C 714.9442 780.94053 715.66384 786.24024 718.62695 789.55859 L 727.47266 793.24219 C 736.49895 812.1015 739.95488 833.11652 741.21289 853.81836 C 742.37742 872.63318 744.31246 893.15703 742.69531 911.79102 C 742.24674 916.77588 737.39831 940.43966 746.73828 938.46484 L 747.49805 935.99414 C 745.02661 944.34539 746.51129 953.83006 744.75977 962.53125 C 743.05284 971.02713 738.60606 983.00207 751.44922 980.49414 C 750.32772 986.95889 748.83977 994.00665 748.17188 1000.2969 C 747.7227 1004.4315 748.9813 1019.5099 755.62695 1011.5156 C 754.54579 1016.9494 749.20306 1034.9544 755.04102 1038.8184 L 759.80273 1032.7539 C 757.10596 1042.6338 758.72522 1055.388 757.19922 1065.4434 C 756.33663 1071.1524 757.07836 1078.0469 760.66211 1081.3672 C 759.68709 1084.1259 758.8137 1086.775 758.44531 1088.3262 C 757.47871 1092.3019 755.55234 1097.4358 757.60938 1100.9336 C 758.09555 1096.4148 761.75528 1089.5265 765.36523 1083.3242 C 767.20899 1083.4315 769.39394 1082.9947 771.97266 1081.8359 C 773.90445 1080.9635 775.44297 1079.9101 776.64648 1078.707 C 782.36706 1081.6333 788.70585 1085.1947 791.22852 1089.0645 C 791.25206 1084.3685 787.4564 1081.1943 784.94531 1078.3418 C 783.90954 1077.1596 781.86144 1075.3675 779.66992 1073.5781 C 783.43095 1060.8929 768.75398 1040.5794 767.48047 1030.6426 L 773.4082 1029.0215 C 776.95645 1022.9135 765.95408 1015.4954 762.54102 1008.6797 C 776.55032 1010.8803 762.80986 991.35441 760.6543 986.4082 L 758.27539 980.57031 C 758.27522 977.006 758.22866 977.46947 760.6543 975.71484 C 764.29262 973.1999 756.83679 958.79169 756.38867 948.09766 C 756.16322 943.38327 756.97263 938.81831 757.73633 934.49805 L 758.26758 930.14258 C 760.82773 905.66783 757.41399 876.97518 753.77734 852.54688 C 752.2062 842.21884 751.39406 831.4855 750.13867 821.11328 C 749.51063 815.86596 749.06209 810.15149 747.44531 805.35352 C 746.00854 800.8634 744.31433 798.21519 743.4043 792.41797 C 746.77167 792.86815 751.57867 792.5031 752.16016 789.45312 C 753.8208 780.51777 744.74997 761.56274 741.65234 749.62305 C 736.48832 730.17977 734.28803 709.25321 730.38086 689.31641 C 728.35961 679.48253 727.99926 668.75371 726.02344 658.64648 C 724.54223 651.1021 720.89377 643.64989 720.36523 635.92383 C 720.00914 630.08666 723.3331 626.40276 721.62695 620.79102 C 718.5735 610.50708 705.86453 603.32239 698.72461 596.09375 C 691.4975 588.74077 683.54656 581.89679 675.69922 575.40234 C 675.3476 570.13984 674.80084 564.32386 674.10742 561.50781 C 670.24565 545.3422 663.10706 529.30505 651.92578 516.24414 C 639.03802 501.15622 617.30348 505.59862 611.91602 498.86523 C 609.51516 495.92298 609.68351 493.20874 611.23438 490.75391 C 611.7614 491.03534 612.34523 491.28887 613.00195 491.50391 C 621.30975 494.25136 627.23632 491.75901 634.64648 487.90625 C 641.24675 484.4026 647.21876 481.35353 653.14648 476.58984 C 659.11872 471.74875 664.9582 466.07562 671.33398 461.81641 C 671.84769 461.46902 672.36797 461.12988 672.88867 460.79102 C 676.64879 470.89523 680.70714 481.45694 685.07422 493.17188 C 696.34579 523.43826 697.42069 556.53136 707.70508 581.22852 C 717.98829 605.97196 728.27275 613.15654 751.9375 646.74609 C 775.69215 680.43246 777.66703 683.20724 781.79883 689.4043 C 785.93003 695.51157 793.15834 716.12479 829.17188 805.66406 C 865.23044 895.20345 880.54287 942.5799 891.23047 953.35547 C 896.93362 959.15495 904.70294 962.82864 912.51562 965.20898 C 934.24946 971.89971 939.27961 951.82652 944.44336 934.3125 C 949.56214 916.84463 950.5948 888.01733 944.44336 858.20117 C 938.20162 828.29367 914.58039 768.61584 895.00195 730.53711 C 875.42345 692.41212 832.22492 619.30807 797.24414 561.15625 C 775.21528 524.66711 744.6793 474.89188 722.83398 438.58008 C 722.95457 438.55862 723.07697 438.52786 723.19727 438.50781 C 726.69876 437.86591 730.6062 438.02808 733.92969 436.71094 L 742.10352 433.06836 C 747.22243 434.37162 749.24328 444.97297 752.16211 448.60547 C 756.60829 454.17339 760.55921 459.92625 764.50977 465.625 C 772.72747 477.38915 780.58533 489.83974 790.24023 500.5625 C 796.75131 507.87672 803.66726 513.03024 813.86133 510.70508 C 815.11764 515.50497 823.11021 522.20519 826.52344 526.15039 C 831.14798 531.49431 836.62604 536.02221 841.47656 541.01562 C 848.84082 548.64886 853.42129 558.83066 861.63867 565.62109 C 865.45645 568.902 870.62087 568.90836 874.21289 571.46094 C 877.76097 574.09636 877.35546 579.88902 880.05078 583.21484 C 882.56556 586.1648 889.43452 593.30497 892.98242 589.45117 C 894.55383 593.25732 900.3041 612.98621 906.5 604.71875 C 910.49692 606.96073 910.36167 613.91771 912.78711 617.46875 C 916.06333 622.4517 924.19797 624.74016 924.23633 617.82812 L 924.24219 617.91992 C 924.24219 617.91992 928.86708 625.05627 932.54883 630.53125 C 934.17525 632.86472 936.16372 635.76659 938.55664 637.82812 C 938.56561 642.58114 938.8828 649.5368 939.36133 652.48438 C 940.01735 656.46921 940.13155 661.98327 943.33398 664.37695 C 941.82166 658.97833 943.37771 648.48528 944.60742 640.42969 C 945.68011 640.42846 946.80845 640.19455 947.99609 639.65039 C 949.8531 638.81686 951.06236 637.80606 951.76172 636.67188 C 958.34603 637.21654 965.98503 638.07456 969.94531 640.82227 C 968.06605 636.57409 963.46576 635.08177 960.16016 633.42188 C 958.37996 632.55465 954.94467 631.41118 951.62109 630.4375 C 948.2333 623.09826 936.12371 614.50749 932.41406 611.62891 C 936.81451 607.7105 932.41327 601.5222 926.53125 599.10156 C 923.11965 597.70031 917.50674 598.07437 914.85742 595.37305 C 911.44388 591.90401 913.55401 588.00924 908.39062 584.82031 C 905.56065 583.10354 900.48692 581.01373 897.25391 580.01562 C 900.1728 571.40158 885.17468 560.30954 877.22656 560.4375 C 876.55292 551.28023 869.36732 546.16086 862.31641 540.90234 C 856.61323 536.55444 851.71995 530.66422 845.70312 526.5332 C 839.99965 522.65193 834.61057 518.06945 828.81836 514.04102 L 820.59961 508.39258 L 821.62891 502.86719 C 822.75151 489.34996 805.68832 478.75239 797.96484 469.77148 C 788.40011 458.77005 778.34214 449.34402 767.83398 439.14844 C 762.93951 434.47594 757.81886 430.38629 753.41797 425.27148 C 750.14033 421.55378 745.38272 412.65813 739.72461 412.70312 C 740.62218 405.91677 731.90946 406.74551 727.82422 407.67578 C 721.17753 408.98374 714.53304 411.12702 708.07227 413.81445 C 702.66757 404.6204 698.63705 397.55434 696.79297 393.88477 C 689.87144 380.18125 688.44124 367.15726 685.67578 357.67773 C 687.97668 356.42925 690.201 354.68604 692.21484 352.86328 C 705.1923 340.78783 720.5497 331.31007 733.30273 318.4668 C 739.36565 312.50217 745.74013 307.58929 751.57812 301.49219 C 756.20454 296.50635 769.44976 288.73691 766.03711 282.45312 C 774.61562 281.12537 781.34974 269.21023 786.60352 263.86133 C 793.33984 256.77596 798.01063 246.34889 796.93164 240.15234 C 796.84696 239.67002 796.64376 239.12431 796.36523 238.54883 C 803.83549 235.74178 810.52552 230.24542 818.07617 227.25 C 826.06965 224.11695 838.64231 221.50665 829.52734 211.80273 C 835.54426 209.3765 842.27992 206.82209 847.98242 204.07812 C 851.71198 202.15107 863.69974 192.95911 853.41602 191.68164 C 858.49019 189.56876 876.53215 184.37178 876.67773 177.40234 L 869.04492 176.66406 C 878.74452 173.614 888.7138 165.30853 898.00977 161.17188 C 903.19198 158.8334 908.49596 154.58951 909.45312 149.85938 C 913.4028 149.65584 917.55607 149.30318 919.66602 148.84961 C 923.65037 148.15469 929.12039 147.87407 931.51367 144.57227 C 926.33312 146.26159 916.22884 145.07345 908.21289 144.03516 C 907.27395 142.61932 905.83409 141.20968 903.75781 139.8418 C 903.5922 139.73496 903.42827 139.64045 903.26367 139.54102 C 903.64992 132.47547 904.1667 123.10025 907.17773 118.59766 C 902.89 120.53 901.55974 125.2322 899.93555 128.59961 C 899.0798 130.4143 898.02344 134.00008 897.125 137.40625 C 882.06025 136.1024 871.61719 164.28023 863.07422 171.36523 L 858.53906 167.19336 C 851.53348 167.50724 851.1737 180.88251 847.22266 187.40039 C 841.56407 174.42887 832.58343 196.43296 829.5293 200.9668 L 825.9375 206.22266 C 822.9309 208.17035 823.37985 207.92793 820.5957 206.78125 C 816.50944 205.20837 808.3817 219.12311 799.625 225.32617 C 796.22516 227.7324 792.48893 229.36377 788.91406 230.91992 C 788.31948 230.64046 787.74796 230.45126 787.23242 230.41016 L 787.23242 230.48047 L 780.04688 231.22461 L 774.20898 233.87695 C 770.21193 236.26042 767.60727 238.81005 765.31836 242.58789 C 762.89307 246.45117 761.72665 250.6734 760.73828 254.98633 L 758.58398 268.1875 L 752.61133 266.84375 L 747 269.58594 C 743.13821 272.08807 740.66622 276.04884 737.20898 279.05664 C 732.49501 283.14705 726.74722 287.28002 721.17969 290.55078 C 713.72487 294.94896 706.63003 299.38996 699.31055 304.01562 C 692.08724 308.55463 684.24173 311.82092 676.61133 315.61914 C 675.25133 309.30072 671.67626 302.72003 669.07812 297.41992 C 662.1628 283.04959 651.65465 262.83915 637.82422 253.90625 C 629.29255 248.29454 624.12918 248.01715 614.42969 245.68945 C 614.11532 237.79417 635.17631 242.29429 640.47461 241.73828 C 648.19925 240.92954 653.13811 233.24779 655.38281 226.42383 C 658.03101 218.11798 656.28459 206.09009 654.8418 197.77734 C 653.80563 192.43259 655.60018 190.77777 656.05078 185.96289 C 656.45618 181.96553 654.35104 177.65617 653.26758 173.93164 C 650.66316 164.90853 646.12706 157.67498 638.35938 151.83789 C 635.08137 149.27655 631.2197 146.67785 627.35742 144.92188 C 622.91184 142.85567 616.49135 144.38188 612.80859 142.18555 L 606.53125 135.57617 C 610.48839 132.71855 614.50527 129.98865 618.65625 127.50586 C 623.99943 124.26856 627.99677 120.00733 633.42969 117.54297 C 639.58159 114.71844 645.55485 114.40248 644.92578 106.58398 C 667.82723 91.00326 695.13085 78.338712 720.68164 65.40625 C 738.14975 56.524891 757.27791 48.028838 779.32617 46.546875 C 789.20418 45.86305 799.44419 47.345023 809.63672 47.060547 C 813.27467 46.822968 821.53844 48.211691 823.87305 43.833984 C 829.21629 33.726545 797.73845 33.191463 793.02344 32.697266 C 787.43314 32.125465 781.81951 31.77811 776.15039 31.849609 z M 907.17773 118.59766 C 907.27969 118.55171 907.37512 118.49978 907.48047 118.45703 L 907.80078 117.76758 C 907.58062 118.0192 907.37565 118.30171 907.17773 118.59766 z M 931.51367 144.57227 C 931.8627 144.45845 932.19624 144.33623 932.49805 144.19531 L 931.69922 144.32227 C 931.64233 144.41038 931.57465 144.48815 931.51367 144.57227 z M 969.94531 640.82227 C 970.00667 640.96096 970.07351 641.09359 970.12891 641.23828 L 970.80273 641.49219 C 970.54295 641.25612 970.25191 641.03499 969.94531 640.82227 z M 943.33398 664.37695 C 943.44825 664.78486 943.57375 665.17123 943.72461 665.51758 L 943.58398 664.56836 C 943.49537 664.5098 943.41824 664.43993 943.33398 664.37695 z M 791.22852 1089.0645 C 791.22806 1089.1557 791.23581 1089.2436 791.23242 1089.3359 L 791.76758 1090 C 791.6169 1089.6858 791.43096 1089.375 791.22852 1089.0645 z M 757.60938 1100.9336 C 757.56812 1101.317 757.54431 1101.6899 757.55078 1102.0371 L 757.77148 1101.2148 C 757.71087 1101.124 757.66421 1101.0268 757.60938 1100.9336 z M 376.24609 1100.9316 C 376.19015 1101.0295 376.14423 1101.1313 376.08203 1101.2266 L 376.30859 1102.0352 C 376.31509 1101.6874 376.2877 1101.3154 376.24609 1100.9316 z M 342.63281 1089.0508 C 342.42835 1089.366 342.24245 1089.683 342.0918 1090.002 L 342.62891 1089.3066 C 342.62571 1089.2195 342.63341 1089.1368 342.63281 1089.0508 z M 190.42773 664.53711 C 190.35785 664.58899 190.29545 664.64826 190.22266 664.69727 L 190.08203 665.51758 C 190.21307 665.21718 190.32445 664.88414 190.42773 664.53711 z M 163.88477 640.83594 C 163.58902 641.04238 163.30627 641.25625 163.05469 641.48438 L 163.72852 641.19336 C 163.77595 641.06931 163.83294 640.95558 163.88477 640.83594 z M 202.38672 144.61719 C 202.31827 144.52608 202.24308 144.44149 202.17969 144.3457 L 201.35938 144.23242 C 201.67298 144.37687 202.02221 144.50227 202.38672 144.61719 z M 226.6543 118.57031 C 226.464 118.28497 226.26735 118.01282 226.05664 117.76758 L 226.375 118.43945 C 226.47213 118.47941 226.56003 118.52759 226.6543 118.57031 z M 566.75977 118.84961 C 567.05155 118.83931 567.34531 118.82329 567.63477 118.82031 L 566.24219 118.82031 C 566.41357 118.8264 566.58764 118.84133 566.75977 118.84961 z "
             transform="matrix(0.00735064,2.0515832e-4,-2.0515832e-4,0.00735064,63.285908,305.60739)"
             id="path1583" />
        </g>
      </g>
    </g>
  </g>
</svg>
